<?xml version="1.0" standalone="no"?>
<!DOCTYPE svg PUBLIC "-//W3C//DTD SVG 20010904//EN"
 "http://www.w3.org/TR/2001/REC-SVG-20010904/DTD/svg10.dtd">
<svg version="1.0" xmlns="http://www.w3.org/2000/svg"
 width="180px" height="180px" viewBox="0 0 1024 1024"
 preserveAspectRatio="xMidYMid meet">

<g transform="translate(0.000000,1024.000000) scale(0.100000,-0.100000)"
fill="#000000" stroke="none">
<path d="M5445 8956 c-38 -18 -80 -36 -93 -40 -12 -4 -19 -12 -16 -18 4 -6 -1
-8 -14 -4 -15 5 -27 1 -39 -13 -10 -12 -26 -21 -36 -21 -10 0 -50 -14 -87 -30
-107 -47 -115 -47 -197 -1 -40 22 -73 37 -73 33 0 -3 -10 4 -22 16 -27 24
-105 61 -131 62 -16 0 -194 -73 -259 -106 -16 -8 -39 -17 -50 -19 -29 -6 -48
-24 -48 -47 0 -15 5 -18 20 -13 11 3 20 2 20 -3 0 -16 -40 -37 -155 -79 -60
-23 -164 -64 -230 -91 -66 -27 -133 -52 -150 -55 l-30 -7 25 15 c38 22 5 18
-40 -5 -22 -11 -46 -20 -55 -20 -8 0 -15 -8 -16 -17 0 -11 -3 -13 -6 -5 -2 6
-11 12 -19 12 -33 0 -8 -19 74 -58 48 -22 110 -54 137 -70 28 -16 175 -93 327
-170 153 -78 274 -143 270 -146 -4 -2 -86 -34 -182 -69 -270 -101 -401 -155
-437 -180 -34 -23 -48 -48 -58 -109 -3 -21 -10 -38 -15 -38 -6 0 -10 -8 -10
-17 0 -15 -2 -15 -9 -4 -7 11 -10 10 -13 -5 -3 -10 -4 19 -4 65 1 83 1 83 -33
112 -19 15 -37 27 -40 27 -6 -1 -15 2 -105 41 -27 12 -50 20 -52 18 -10 -9
-24 -116 -19 -142 2 -16 2 -24 -1 -17 -3 6 -10 12 -14 12 -10 0 -118 61 -173
98 -23 15 -36 31 -32 39 3 11 -1 13 -16 8 -15 -5 -19 -4 -15 4 4 6 1 12 -6 13
-7 0 -18 2 -24 2 -6 1 -19 8 -28 16 -15 12 -19 12 -27 -1 -5 -8 -9 -9 -9 -3 0
11 -29 25 -55 28 -27 3 -149 75 -151 89 -1 9 -9 24 -18 33 -21 20 -20 28 0 20
14 -5 15 -4 4 9 -7 8 -18 15 -24 15 -21 0 -102 43 -89 47 6 2 25 -3 42 -11 56
-30 65 -16 11 17 -53 31 -55 33 -55 76 0 36 4 46 23 54 22 10 30 27 12 27 -5
0 -10 -5 -10 -11 0 -5 -5 -7 -10 -4 -15 10 -57 -21 -74 -53 -8 -15 -17 -52
-21 -83 -6 -52 -9 -56 -51 -78 -46 -25 -84 -84 -84 -132 0 -21 -9 -28 -62 -49
-216 -83 -361 -142 -390 -158 -51 -28 -70 -74 -65 -153 l4 -67 -71 -28 c-39
-15 -93 -37 -121 -49 -27 -12 -58 -25 -68 -28 -19 -7 -47 -64 -47 -96 0 -10
-6 -21 -14 -24 -39 -15 -38 -119 0 -197 l18 -34 7 28 c9 33 50 79 97 108 24
15 42 18 67 14 19 -4 35 -11 35 -17 0 -6 4 -8 9 -5 5 3 14 -1 21 -9 7 -8 19
-15 26 -15 8 0 14 -7 14 -15 0 -8 3 -15 8 -16 4 0 16 -2 28 -3 11 -1 59 -24
105 -51 46 -27 110 -61 142 -77 35 -18 55 -33 51 -40 -4 -7 -3 -8 5 -4 19 12
61 -21 56 -43 -3 -15 8 -26 48 -45 28 -15 59 -26 69 -26 10 0 18 -4 18 -9 0
-5 14 -15 31 -23 l31 -15 -47 -27 c-26 -14 -49 -26 -52 -26 -10 0 -54 -58 -65
-87 -7 -18 -16 -33 -21 -33 -4 0 -6 -4 -3 -8 2 -4 -10 -9 -28 -10 -23 -2 -45
7 -74 28 -23 17 -42 34 -42 38 0 5 11 30 24 58 13 27 27 59 30 72 4 12 12 19
18 16 7 -4 8 -2 4 4 -4 7 -11 12 -16 12 -15 0 -68 -100 -80 -151 -11 -46 -13
-47 -37 -38 -47 17 -35 2 23 -31 31 -17 53 -35 48 -39 -5 -5 -53 -25 -106 -46
-53 -21 -96 -42 -95 -47 2 -11 -68 -38 -100 -38 -12 0 -68 -22 -125 -49 -57
-26 -105 -45 -108 -41 -3 4 -57 35 -120 70 -163 89 -207 113 -275 152 -58 33
-82 37 -97 15 -12 -19 4 -38 56 -64 28 -14 54 -31 58 -37 17 -24 8 -113 -12
-139 l-21 -26 33 -30 c18 -17 38 -31 44 -31 6 0 29 -13 50 -28 21 -15 62 -41
89 -56 28 -16 79 -48 115 -71 36 -23 87 -52 114 -64 l50 -22 -38 -25 -37 -26
-117 70 c-153 90 -362 209 -385 218 -13 5 -22 -4 -38 -42 -17 -38 -20 -60 -16
-108 9 -93 51 -186 83 -186 6 0 19 -10 28 -22 11 -17 14 -18 9 -5 -5 17 -4 18
16 6 24 -15 27 -25 9 -31 -17 -6 -1 -27 35 -43 18 -9 23 -13 12 -10 -17 4 -16
2 5 -14 14 -11 32 -19 40 -18 8 1 16 -2 18 -8 1 -6 -49 -11 -133 -13 l-135 -3
0 -738 0 -739 25 -16 c14 -9 23 -20 21 -25 -3 -4 11 -22 30 -40 19 -19 32 -36
29 -40 -4 -3 -13 2 -20 13 -13 18 -14 18 -12 -2 0 -11 4 -20 7 -20 17 1 21 -4
11 -16 -9 -10 -8 -16 3 -25 8 -7 13 -23 10 -37 -2 -13 -1 -24 4 -24 17 0 6
-110 -13 -131 -16 -17 -17 -22 -4 -34 19 -19 392 -223 421 -230 15 -4 64 12
143 46 164 71 245 100 255 94 11 -7 7 -29 -9 -49 -11 -13 -11 -16 0 -16 8 0 3
-6 -11 -14 -18 -9 -29 -10 -39 -2 -11 8 -13 8 -8 0 8 -14 -17 -26 -36 -18 -7
2 -22 -4 -34 -15 -11 -11 -24 -17 -27 -14 -3 4 -6 0 -6 -7 0 -7 -3 -11 -6 -7
-4 3 -18 0 -33 -7 -14 -7 -36 -12 -48 -11 -12 1 -20 -2 -17 -7 5 -7 0 -9 -34
-12 -7 -1 -17 -8 -22 -16 -5 -8 -10 -11 -10 -6 0 5 -7 3 -15 -4 -8 -7 -15 -9
-15 -4 0 15 -70 -60 -71 -75 0 -12 -3 -10 -9 4 -12 28 -12 43 1 25 9 -13 10
-13 6 0 -2 8 -9 16 -15 16 -7 1 -19 2 -28 3 -8 0 -12 5 -9 11 3 5 0 7 -9 4 -9
-3 -17 2 -21 15 -7 23 -30 28 -38 9 -4 -8 -6 -7 -6 4 -1 11 -7 15 -19 11 -10
-2 -24 3 -32 12 -11 13 -10 15 6 9 10 -4 16 -4 13 0 -10 11 -50 16 -44 5 4 -5
-2 -9 -12 -9 -11 0 -14 -3 -7 -8 6 -4 13 -14 16 -23 4 -9 43 -37 87 -63 84
-50 112 -74 70 -60 -13 4 -30 7 -36 7 -7 0 -13 5 -13 10 0 6 -3 8 -6 4 -4 -3
-13 1 -21 9 -8 8 -19 11 -25 8 -6 -4 -8 -2 -5 3 4 6 0 14 -9 17 -10 4 -13 2
-9 -7 4 -6 -1 -3 -9 7 -9 11 -16 16 -16 12 0 -5 -7 -3 -15 4 -8 7 -15 9 -15 4
0 -5 45 -55 100 -112 55 -57 100 -108 100 -114 0 -6 3 -8 6 -5 4 4 15 -2 24
-13 12 -14 27 -19 51 -17 29 2 35 7 44 40 6 21 14 35 18 31 6 -6 12 26 8 49
-1 9 13 9 22 1 3 -3 -3 -28 -14 -55 -10 -28 -19 -61 -19 -74 0 -13 -4 -26 -9
-29 -12 -8 12 -99 35 -134 20 -31 232 -245 284 -286 19 -16 53 -45 75 -65 22
-20 51 -44 64 -54 14 -9 55 -46 92 -82 l67 -66 -5 -67 c-6 -75 18 -156 59
-203 21 -23 110 -89 121 -89 2 0 55 -29 116 -65 62 -36 116 -65 121 -65 4 0
10 -3 12 -7 1 -5 37 -26 78 -47 41 -21 86 -47 100 -56 64 -44 112 -62 154 -56
44 6 160 41 188 57 10 5 29 9 42 9 14 0 28 5 31 10 3 6 17 10 30 10 13 0 26 4
29 9 8 12 100 34 216 50 61 9 67 8 107 -17 24 -15 43 -30 43 -33 0 -4 25 -17
55 -29 30 -12 55 -26 55 -30 0 -5 9 -12 20 -15 17 -5 20 -15 20 -61 0 -59 -3
-61 -57 -39 -49 21 -73 19 -73 -4 0 -18 70 -62 310 -194 25 -13 68 -37 95 -52
28 -16 93 -52 145 -80 52 -28 154 -83 226 -123 150 -83 170 -86 279 -46 39 14
120 43 180 64 61 21 178 64 260 95 83 31 175 65 205 75 30 10 93 33 140 50 47
18 139 52 205 75 66 24 128 46 138 50 15 6 17 22 17 116 0 92 3 111 16 116 16
6 140 -52 284 -133 143 -80 193 -104 217 -104 36 0 169 58 363 158 91 47 227
117 303 155 77 39 141 77 144 84 5 14 -12 31 -54 54 -18 10 -42 2 -177 -60
-85 -39 -158 -71 -161 -71 -22 0 -104 -44 -98 -53 4 -6 0 -8 -10 -4 -9 3 -22
0 -29 -7 -7 -7 -17 -13 -23 -14 -36 -8 -73 -27 -68 -36 3 -6 3 -8 -2 -4 -4 4
-15 2 -23 -5 -13 -9 -14 -9 -8 0 5 9 2 11 -8 7 -9 -3 -16 -11 -16 -17 0 -6 -3
-7 -6 -4 -4 3 -16 0 -28 -8 -31 -22 -37 -19 -35 23 3 56 40 98 122 138 40 19
99 51 132 70 33 20 125 65 205 101 80 35 150 69 155 75 6 5 -7 3 -29 -6 -21
-9 -44 -16 -50 -16 -6 1 15 12 47 26 58 25 159 89 165 106 2 4 9 8 16 8 6 0
18 9 26 20 8 11 22 20 32 20 10 0 18 4 18 8 0 9 221 121 405 207 55 26 124 58
153 72 79 37 82 66 9 83 -27 6 -39 4 -48 -6 -6 -8 -15 -14 -20 -14 -17 0 -131
-58 -123 -62 5 -3 3 -3 -4 -1 -7 1 -39 -11 -71 -27 -33 -16 -99 -46 -147 -66
-49 -20 -115 -49 -146 -65 -60 -30 -88 -36 -88 -19 0 6 5 10 10 10 6 0 10 7
10 15 0 22 112 129 178 169 32 19 94 51 138 69 125 54 244 117 244 128 0 6 8
9 18 8 21 -4 71 22 95 49 17 19 17 21 -8 57 -14 21 -23 41 -19 44 3 3 87 47
187 96 207 102 209 104 215 220 3 57 8 73 25 87 31 24 16 44 -64 86 -89 47
-99 58 -99 106 0 70 17 84 210 168 74 32 135 68 138 82 2 8 -9 20 -25 28 -25
12 -33 10 -98 -23 -38 -21 -95 -47 -125 -60 -30 -12 -67 -31 -82 -41 -14 -10
-33 -18 -41 -18 -11 0 -350 169 -417 208 -8 5 -16 19 -18 31 -3 16 2 21 20 21
25 0 311 -153 303 -162 -3 -3 13 -13 34 -23 38 -17 43 -17 88 -1 26 10 58 20
71 23 12 3 22 9 22 12 0 8 83 52 105 55 7 1 19 7 26 13 23 18 69 25 69 11 1
-7 7 -2 15 12 18 31 19 76 3 84 -7 3 -3 3 9 0 16 -4 21 -1 19 13 -3 17 70 97
97 106 9 3 13 169 17 729 3 398 4 732 2 740 -3 14 -27 17 -165 20 l-162 3
-105 52 c-114 56 -150 69 -150 55 0 -11 -92 -62 -111 -62 -8 0 13 17 45 37
l59 36 -64 33 c-70 35 -72 34 -83 -31 -10 -57 -16 -75 -26 -75 -17 0 -19 49
-5 96 20 65 19 68 -10 84 -13 7 -22 18 -18 23 3 6 2 7 -4 4 -6 -4 -19 0 -29 8
-10 8 -30 15 -44 15 -14 0 -35 7 -48 14 l-24 13 28 32 c22 26 33 32 54 27 15
-2 126 -54 246 -113 120 -60 246 -119 279 -132 33 -12 68 -27 79 -33 13 -7 16
-6 11 3 -6 9 -1 10 19 7 18 -4 30 0 36 11 5 9 10 12 10 8 0 -4 6 -3 13 3 6 5
25 20 40 31 15 12 26 24 23 27 -3 3 4 12 15 20 30 21 59 90 59 142 0 75 -17
114 -80 182 -46 50 -81 76 -157 116 -165 88 -159 82 -166 146 -3 31 -12 69
-20 85 l-14 28 63 31 c60 30 87 63 67 82 -8 8 -66 -19 -455 -212 l-178 -88 2
32 c1 18 -2 40 -5 48 -15 35 42 73 358 235 116 60 213 113 218 119 7 11 5 36
-9 84 -5 17 -2 22 13 22 24 0 43 19 43 41 0 13 -41 39 -144 90 l-143 73 -6 82
c-3 61 -11 94 -28 125 -27 48 -49 61 -49 30 0 -30 -19 -36 -29 -9 -7 16 -10
-32 -12 -152 -1 -96 -4 -160 -6 -142 -4 31 -25 43 -38 22 -4 -6 -11 -8 -16 -5
-5 4 -9 1 -9 -5 0 -6 -4 -8 -10 -5 -6 3 -10 -5 -10 -19 0 -46 -16 -35 -18 12
-2 65 -13 143 -23 170 -10 27 -30 28 -78 3 -67 -35 -265 -128 -314 -146 -38
-14 -46 -22 -42 -36 4 -11 3 -24 -1 -31 -4 -7 -7 -33 -7 -58 1 -44 1 -44 -7
-10 -4 19 -9 29 -10 23 -1 -7 -4 -17 -5 -23 -1 -5 -3 -14 -4 -20 -2 -16 -21
-12 -21 5 0 8 -4 15 -10 15 -5 0 -10 -5 -10 -10 0 -6 -11 -3 -25 6 -14 9 -22
20 -19 25 3 5 -1 9 -8 10 -7 0 -4 4 7 9 19 8 19 9 -2 9 -13 1 -23 -5 -23 -12
0 -16 -89 -47 -129 -46 -18 0 7 17 89 57 64 31 136 66 160 77 106 46 374 175
382 183 16 16 -11 25 -29 10 -12 -9 -15 -9 -9 0 8 13 -6 17 -18 5 -4 -5 -11
-8 -14 -9 -11 -1 -86 -38 -92 -45 -4 -5 -33 -17 -60 -24 -3 -1 -22 -9 -42 -18
-21 -10 -42 -17 -48 -17 -6 0 -70 -28 -143 -61 -136 -63 -228 -101 -234 -96
-3 4 173 92 300 152 79 36 95 59 43 61 -14 1 -30 5 -34 9 -4 5 1 5 11 2 9 -4
17 -4 17 -2 0 8 -139 75 -155 75 -8 0 -15 4 -15 8 0 5 -22 21 -50 36 -38 21
-50 24 -50 13 0 -16 27 -30 41 -21 5 3 4 -7 -1 -22 -9 -22 -8 -25 3 -16 14 12
57 5 57 -9 0 -5 7 -6 16 -2 10 4 22 -1 30 -11 7 -10 16 -16 21 -14 4 3 21 -8
37 -24 16 -15 24 -28 17 -28 -7 0 -9 -5 -6 -11 4 -6 13 -8 21 -5 8 3 14 3 14
1 0 -4 -88 -45 -96 -45 -2 0 -4 7 -4 16 0 8 4 13 9 10 4 -3 16 3 26 14 14 15
15 20 4 20 -23 -1 -49 -26 -49 -46 0 -22 -36 -50 -42 -32 -4 11 -5 11 -75 -26
-17 -9 -43 -17 -56 -18 -14 -1 -25 -7 -24 -13 1 -5 -9 -9 -23 -8 -14 1 -19 -1
-12 -3 20 -9 14 -27 -7 -21 -11 3 -22 -1 -25 -8 -3 -10 -15 -11 -47 -4 -44 10
-63 4 -39 -12 12 -8 10 -9 -6 -4 -24 6 -50 -17 -39 -36 5 -7 0 -7 -16 2 -13 7
-24 11 -24 9 0 -2 -10 0 -23 4 -12 4 -20 12 -17 17 3 5 0 6 -8 4 -10 -5 -297
134 -451 218 l-28 15 23 13 c13 6 58 30 99 52 41 22 82 44 90 48 8 4 107 53
219 109 180 89 251 123 480 227 36 16 63 22 79 18 22 -5 24 -4 13 8 -9 12 -8
23 8 53 11 22 22 55 25 74 2 19 7 55 11 80 17 110 -42 190 -200 273 -50 26
-128 67 -175 93 -47 25 -138 73 -204 106 l-118 60 -87 -37 c-47 -20 -109 -49
-138 -65 l-52 -28 -7 47 c-14 99 -14 99 -217 200 l-185 92 -47 -11 c-26 -6
-57 -16 -69 -22 -11 -7 -28 -11 -36 -10 -10 1 -11 -1 -2 -4 21 -10 13 -23 -15
-26 l-27 -3 37 -25 c20 -14 37 -31 37 -38 0 -14 -62 -44 -96 -46 -13 0 -19 -6
-17 -13 7 -18 0 -16 -52 8 -29 14 -45 28 -45 39 0 29 57 70 96 70 20 0 33 4
30 9 -4 5 0 12 6 14 8 3 6 6 -5 6 -14 1 -16 5 -7 20 18 35 12 51 -19 51 -16 0
-31 6 -34 13 -7 18 -300 167 -328 167 -13 0 -55 -15 -94 -34z m165 -31 c47
-25 38 -46 -40 -87 -52 -27 -71 -33 -79 -24 -13 15 -2 33 23 37 11 2 21 10 24
17 5 17 -33 15 -48 -3 -7 -8 -19 -15 -27 -15 -9 0 -11 -5 -7 -12 6 -10 5 -10
-8 0 -26 21 -119 -8 -163 -51 -15 -16 -15 -17 7 -18 13 -1 5 -5 -17 -8 -24 -4
-39 -11 -37 -19 1 -8 -11 -12 -34 -12 -21 0 -33 -4 -29 -10 4 -6 -6 -10 -23
-10 -28 0 -63 -28 -75 -60 -3 -8 -6 -1 -6 17 -1 44 22 63 147 118 59 26 132
59 162 73 80 37 184 80 193 81 4 1 21 -6 37 -14z m-842 -33 c2 -7 -1 -12 -7
-12 -6 0 -35 -16 -65 -35 -48 -32 -86 -39 -86 -15 0 10 132 80 144 77 6 -2 12
-9 14 -15z m102 -26 c0 -2 -21 -14 -46 -27 -26 -12 -49 -31 -52 -41 -2 -10
-10 -16 -16 -13 -6 3 -19 8 -28 11 -27 9 -22 21 19 49 26 17 51 25 80 25 24 0
43 -2 43 -4z m885 -37 c4 -5 2 -16 -5 -23 -13 -17 -130 -76 -148 -76 -14 0
-72 40 -72 50 0 4 15 12 33 18 17 6 49 17 70 25 46 17 114 21 122 6z m-841
-22 c6 -9 7 -19 4 -22 -6 -6 -118 -24 -118 -19 0 8 86 64 94 61 5 -2 14 -11
20 -20z m1238 -50 c22 -21 73 -55 80 -53 16 3 58 -38 58 -57 0 -18 -25 -46
-42 -47 -5 0 -8 16 -8 35 0 36 -18 52 -105 95 -16 8 -36 21 -43 28 -11 10 -8
12 17 12 16 0 36 -6 43 -13z m-792 -36 c0 -4 -11 -6 -25 -3 -14 2 -25 6 -25 8
0 2 11 4 25 4 14 0 25 -4 25 -9z m79 -56 c3 -16 -3 -14 -32 11 -20 16 -36 33
-36 37 -2 17 64 -30 68 -48z m-93 15 c8 0 14 -7 14 -15 0 -8 -6 -15 -14 -15
-8 0 -40 -13 -71 -30 -61 -32 -100 -37 -127 -16 -33 25 -22 52 25 65 58 15 97
19 131 15 16 -2 35 -4 42 -4z m-776 -19 c-8 -6 -19 -7 -25 -4 -5 4 -7 2 -2 -2
4 -5 15 -10 25 -11 9 -1 26 -5 37 -9 l20 -8 -20 16 c-36 30 -6 18 128 -50 214
-107 261 -135 245 -144 -10 -7 -10 -9 0 -9 7 0 10 -4 7 -10 -3 -6 1 -7 9 -4 9
3 13 10 10 15 -3 5 2 6 11 3 10 -4 12 -10 6 -18 -6 -8 0 -12 22 -13 18 -1 79
-27 137 -58 58 -31 117 -61 133 -66 36 -14 35 -29 -2 -26 -16 1 -29 6 -28 11
1 5 -4 11 -12 14 -8 3 -11 0 -7 -7 10 -16 3 -14 -61 16 -110 50 -122 57 -116
67 4 5 -1 7 -10 3 -9 -3 -27 3 -41 14 -14 11 -26 16 -26 10 0 -13 57 -50 160
-101 43 -22 85 -46 92 -53 41 -37 77 -55 104 -51 32 4 60 -8 51 -24 -4 -5 -21
-12 -39 -15 -18 -3 -80 -25 -138 -50 -58 -24 -161 -68 -230 -96 -69 -29 -134
-57 -144 -63 -39 -21 -75 -27 -86 -13 -9 11 -7 12 7 9 10 -3 34 6 53 20 19 14
60 38 90 52 30 14 105 50 165 79 125 59 180 79 213 77 12 -1 22 0 22 3 0 6
-178 104 -282 155 -48 24 -89 50 -92 59 -3 9 -4 -3 -2 -27 5 -50 -3 -57 -107
-96 -37 -14 -109 -47 -159 -72 -89 -45 -93 -46 -119 -30 -15 9 -32 16 -38 16
-7 0 -17 5 -24 10 -7 6 -55 32 -107 58 -76 38 -99 55 -113 82 -10 19 -22 34
-28 32 -7 -2 -9 4 -5 14 5 14 4 15 -8 5 -11 -9 -16 -9 -21 -1 -4 7 -16 9 -27
7 -11 -3 -33 -1 -49 5 l-30 10 22 24 c12 13 30 26 41 30 30 9 21 21 -27 34
-25 7 -45 15 -45 19 0 3 39 20 88 38 48 17 116 43 152 56 l65 25 80 -33 c44
-19 147 -68 229 -109 82 -42 152 -74 155 -71 7 7 -4 14 -101 66 -37 21 -83 47
-103 59 -19 12 -35 19 -35 15 0 -3 -10 3 -22 15 -20 19 -116 60 -140 60 -15 0
12 30 37 40 29 12 74 12 55 1z m1630 -46 c0 -13 8 -26 18 -30 34 -13 -67 -52
-213 -81 -73 -15 -142 3 -240 63 -109 67 -95 83 22 24 91 -46 176 -65 267 -59
88 5 121 29 121 86 0 31 3 38 13 30 6 -6 12 -21 12 -33z m-747 11 c5 -13 -47
-44 -140 -81 -23 -9 -45 -25 -48 -35 -7 -22 -46 -15 -130 24 -74 36 -66 43 14
11 73 -28 107 -34 104 -19 -1 7 30 28 70 47 40 20 81 43 92 51 25 19 31 20 38
2z m142 -45 c-3 -6 -26 -20 -50 -32 -25 -12 -54 -32 -65 -44 l-21 -23 38 9
c79 17 150 37 171 48 26 14 72 14 72 1 0 -6 -15 -20 -33 -30 -19 -11 -48 -38
-66 -60 -20 -26 -40 -40 -55 -40 -31 0 -36 8 -25 37 9 23 8 25 -13 18 -13 -4
-38 -8 -57 -9 -29 -1 -36 4 -50 31 -9 18 -23 33 -30 33 -23 0 2 21 28 23 11 1
21 5 21 9 0 4 6 5 13 2 7 -2 33 4 58 15 47 22 74 27 64 12z m229 -87 c33 -13
14 -35 -59 -68 -103 -49 -125 -54 -125 -28 0 22 43 62 66 62 7 0 28 9 46 20
35 21 47 24 72 14z m998 -78 c197 -38 287 -114 280 -238 -2 -26 -72 -108 -93
-108 -6 0 -23 -8 -37 -18 -58 -40 -293 -78 -417 -67 -179 16 -281 57 -329 134
-21 33 -24 47 -19 89 7 62 41 101 125 143 54 27 91 40 203 69 50 13 209 11
287 -4z m-1072 -56 c-24 -15 -36 -11 -14 4 10 8 21 12 24 10 2 -3 -2 -9 -10
-14z m-436 -139 c-2 -3 -12 3 -22 13 -16 17 -16 18 5 5 12 -7 20 -15 17 -18z
m-804 -71 c0 -5 -4 -10 -10 -10 -5 0 -10 5 -10 10 0 6 5 10 10 10 6 0 10 -4
10 -10z m-1545 -110 c36 -22 70 -40 75 -40 5 0 49 -23 97 -51 48 -29 143 -83
211 -120 67 -38 132 -75 145 -82 32 -18 71 -47 62 -47 -13 0 -490 253 -521
277 -17 13 -59 37 -93 53 -33 17 -61 34 -61 40 0 17 18 11 85 -30z m1768 7
c29 -13 68 -47 54 -47 -12 0 -117 49 -117 54 0 10 30 6 63 -7z m731 -22 c8
-19 22 -35 30 -35 8 0 17 -4 21 -9 5 -10 -184 -105 -232 -118 -49 -12 -77 -32
-99 -70 -20 -37 -22 -38 -95 -44 -41 -3 -86 -10 -99 -15 -14 -4 -33 -7 -42 -5
-14 2 -196 -64 -273 -99 -56 -26 52 8 150 47 61 23 115 43 120 43 10 -1 -242
-107 -311 -131 -21 -8 -48 -22 -59 -32 -10 -10 -25 -15 -32 -13 -7 3 -12 1
-10 -3 1 -5 -20 -30 -46 -56 -54 -51 -77 -97 -77 -150 0 -19 -4 -35 -9 -35 -5
0 -11 -8 -13 -18 -4 -15 -52 -40 -194 -99 -13 -5 -34 97 -34 163 0 41 1 42 79
86 59 34 174 78 184 71 6 -3 7 -1 4 4 -9 14 19 37 36 30 7 -3 22 2 32 10 19
15 19 15 1 9 -10 -3 -28 -3 -40 0 -20 7 -20 7 -2 14 16 5 10 12 -33 39 -49 32
-58 51 -23 51 10 0 50 16 91 35 40 19 77 35 83 35 15 0 78 30 111 53 21 14 31
17 40 8 6 -6 25 -11 43 -11 35 0 102 25 88 32 -5 3 -3 3 3 2 14 -4 197 68 285
112 31 15 54 32 51 37 -4 6 -1 7 6 3 18 -11 76 14 59 26 -9 6 -7 8 7 6 39 -3
56 2 49 14 -4 6 -3 8 3 5 13 -8 117 20 121 33 6 17 11 12 26 -25z m370 -31
c55 -30 185 -97 287 -150 205 -105 251 -140 268 -199 12 -45 15 -165 4 -165
-8 0 -326 161 -588 297 -82 43 -150 83 -152 89 -2 6 8 16 22 22 24 11 25 16
25 91 0 93 -13 92 134 15z m-1299 -4 c-3 -5 -12 -10 -18 -10 -7 0 -6 4 3 10
19 12 23 12 15 0z m295 0 c0 -5 -4 -10 -9 -10 -6 0 -13 5 -16 10 -3 6 1 10 9
10 9 0 16 -4 16 -10z m2645 -46 c-11 -8 -25 -12 -32 -10 -7 3 -19 -2 -28 -10
-8 -8 -24 -16 -35 -17 -11 -1 -20 -5 -20 -9 0 -4 -9 -8 -19 -8 -11 0 -23 -4
-26 -10 -3 -5 -11 -10 -18 -10 -21 0 35 33 112 65 76 33 103 36 66 9z m-2922
-87 c16 -25 16 -27 -2 -36 -43 -24 -393 -160 -476 -186 -49 -15 -94 -32 -99
-36 -6 -5 -17 -9 -25 -9 -12 0 -12 3 -3 12 7 7 12 23 12 37 0 13 3 21 7 18 9
-10 35 31 28 43 -3 6 -2 10 4 10 14 0 80 44 81 54 0 4 -7 5 -15 2 -43 -17 -50
-19 -40 -8 9 9 280 119 445 179 l55 20 5 -37 c4 -21 14 -49 23 -63z m-1668 8
c55 -25 105 -45 111 -45 6 0 19 -9 29 -20 18 -19 17 -20 -6 -20 -14 0 -29 -4
-34 -9 -13 -11 -234 -104 -303 -126 -28 -9 -50 -20 -48 -23 2 -4 -8 -8 -22 -9
-90 -8 -96 -7 -200 58 -56 35 -102 68 -102 73 0 4 7 6 15 3 8 -4 17 -2 20 2 7
12 183 85 268 111 41 14 65 26 61 32 -4 6 -2 8 4 5 5 -4 21 -3 34 2 42 17 73
11 173 -34z m2155 31 c0 -2 -7 -7 -16 -10 -8 -3 -12 -2 -9 4 6 10 25 14 25 6z
m-80 -36 c-8 -5 -19 -10 -25 -10 -5 0 -3 5 5 10 8 5 20 10 25 10 6 0 3 -5 -5
-10z m2265 -20 c-3 -5 -13 -10 -21 -10 -8 0 -14 -4 -14 -10 0 -5 -9 -10 -20
-10 -11 0 -20 -4 -20 -9 0 -5 -13 -12 -30 -16 -16 -3 -39 -14 -52 -24 -13 -10
-40 -24 -60 -32 -21 -7 -38 -16 -38 -20 0 -4 -16 -10 -35 -13 -19 -4 -35 -11
-35 -17 0 -6 -4 -7 -10 -4 -5 3 -10 2 -10 -3 0 -6 -14 -15 -31 -21 -38 -13
-39 -13 -39 -3 0 5 28 21 63 37 201 93 257 119 301 141 56 27 60 28 51 14z
m-564 -16 c9 -11 15 -53 17 -120 3 -57 5 -104 6 -104 9 1 77 29 95 39 16 9 22
9 19 1 -2 -6 -35 -25 -73 -41 -69 -29 -104 -38 -75 -19 12 8 11 10 -7 10 -12
0 -24 8 -27 18 -3 9 -3 0 0 -21 3 -25 0 -42 -9 -52 -21 -20 -27 -9 -27 49 -1
78 -15 125 -50 161 l-32 33 32 17 c32 16 98 43 111 44 4 1 13 -6 20 -15z
m-2910 -44 c13 -8 19 -21 18 -43 -1 -21 -3 -25 -6 -12 -10 41 -23 39 -23 -3 0
-47 -18 -56 -52 -25 -17 16 -25 73 -11 86 10 10 52 8 74 -3z m-691 -20 c0 -5
-2 -10 -4 -10 -3 0 -8 5 -11 10 -3 6 -1 10 4 10 6 0 11 -4 11 -10z m47 -18 c7
-4 9 -13 4 -21 -5 -7 -6 -22 -4 -32 3 -10 1 -19 -3 -19 -18 0 -31 16 -28 33 1
9 -2 17 -7 17 -5 0 -9 -13 -9 -29 0 -24 -6 -31 -41 -45 -22 -9 -37 -21 -34
-26 8 -12 -32 -31 -135 -65 -47 -15 -92 -33 -100 -40 -10 -9 -22 -10 -39 -4
-27 11 -22 21 12 25 12 1 25 3 30 3 4 1 7 5 7 10 0 5 -8 7 -17 5 -10 -2 -25 0
-33 6 -13 9 -12 12 5 26 11 8 28 13 38 10 9 -2 15 0 11 5 -8 14 19 10 40 -6
27 -20 48 -19 109 7 65 27 62 25 47 43 -16 19 -31 20 -24 1 4 -11 -6 -16 -40
-21 -25 -4 -43 -11 -40 -16 11 -18 -38 -8 -66 13 -22 16 -27 24 -18 30 16 10
41 10 35 1 -3 -5 13 -9 34 -10 41 -3 53 11 19 22 -20 6 -25 16 -13 28 3 4 12
-2 20 -13 15 -21 48 -27 58 -11 3 5 -7 11 -22 13 -25 3 -47 28 -23 28 6 0 9
-4 6 -8 -7 -12 56 -13 70 -1 12 9 109 46 129 48 6 0 15 -3 22 -7z m876 -17
c-3 -9 -8 -14 -10 -11 -3 3 -2 9 2 15 9 16 15 13 8 -4z m1505 -96 c32 -17 62
-34 67 -39 6 -4 82 -44 170 -89 88 -45 164 -87 169 -92 6 -5 -2 -9 -22 -9 -18
0 -32 4 -32 9 0 5 -37 27 -82 50 -46 22 -128 65 -183 96 -55 30 -117 62 -138
71 -28 12 -35 19 -25 25 18 12 13 13 76 -22z m-2764 -2 c3 3 6 0 6 -9 0 -8 -7
-15 -15 -15 -8 0 -13 3 -10 5 3 3 -3 11 -13 19 -15 13 -15 13 4 4 12 -6 24 -7
28 -4z m374 -7 c7 0 12 -8 10 -17 -2 -15 5 -19 40 -21 31 -2 42 0 40 10 -2 7
3 11 12 9 8 -3 25 -5 36 -5 12 -1 20 -6 17 -12 -5 -12 27 -24 67 -24 28 0 75
-39 85 -71 12 -37 -3 -84 -35 -107 -16 -12 -34 -22 -40 -22 -5 0 -10 -8 -10
-17 0 -15 -1 -15 -13 1 -12 17 -18 17 -51 6 -37 -12 -58 -9 -177 21 -67 17
-100 82 -71 141 14 26 26 35 60 42 23 6 42 13 42 17 0 12 -63 37 -79 31 -14
-5 -14 -4 -2 12 9 11 22 15 35 12 12 -3 27 -6 34 -6z m242 -4 c0 -2 -12 -12
-27 -21 l-28 -18 19 21 c17 20 36 29 36 18z m10 -36 c0 -5 -5 -10 -11 -10 -5
0 -7 5 -4 10 3 6 8 10 11 10 2 0 4 -4 4 -10z m65 -20 c-3 -5 -10 -10 -16 -10
-5 0 -9 5 -9 10 0 6 7 10 16 10 8 0 12 -4 9 -10z m1920 -22 c10 -43 24 -172
19 -180 -9 -14 -24 -9 -62 21 -20 16 -67 42 -104 57 -38 15 -67 29 -65 30 6 7
94 -25 131 -47 30 -17 38 -19 34 -8 -3 9 -9 46 -13 82 l-7 67 31 0 c24 0 32
-5 36 -22z m-2399 -3 c-26 -19 -42 -19 -26 0 7 8 20 15 29 15 13 -1 13 -3 -3
-15z m-45 -89 c-11 -13 -17 -11 -49 10 -46 32 -47 48 -2 54 31 5 37 2 49 -22
11 -21 12 -30 2 -42z m1109 70 c0 -2 -7 -7 -16 -10 -8 -3 -12 -2 -9 4 6 10 25
14 25 6z m-1020 -58 c0 -23 -3 -29 -11 -21 -6 6 -8 20 -4 32 9 30 15 26 15
-11z m466 2 c0 -11 -4 -20 -8 -20 -10 0 -11 24 -1 33 9 9 9 10 9 -13z m59 -28
c-3 -3 -11 0 -18 7 -9 10 -8 11 6 5 10 -3 15 -9 12 -12z m1545 -7 c0 -11 -7
-12 -39 -6 -2 1 2 8 9 16 14 16 30 11 30 -10z m124 -12 c25 -4 86 -42 86 -54
0 -12 -2 -12 -62 12 -114 45 -105 40 -83 49 11 4 25 5 30 2 6 -4 19 -8 29 -9z
m-2765 -84 c91 -50 235 -130 319 -178 l153 -86 -45 -7 c-56 -8 -66 -14 -66
-39 0 -10 -2 -19 -5 -19 -5 0 -66 32 -385 204 -118 64 -232 124 -253 133 -20
9 -36 22 -34 27 4 12 104 55 131 56 10 0 94 -41 185 -91z m544 74 c-7 -2 -19
-2 -25 0 -7 3 -2 5 12 5 14 0 19 -2 13 -5z m2187 -39 l25 -15 -25 7 c-14 3
-32 10 -40 15 -13 7 -13 8 0 8 8 0 26 -6 40 -15z m-1466 -10 c9 -3 16 -12 16
-20 0 -10 -6 -11 -24 -4 -13 5 -27 6 -30 3 -3 -4 -6 -1 -6 5 0 5 6 13 13 15 6
3 13 6 14 6 1 1 8 -2 17 -5z m-317 -10 c-3 -3 -12 -4 -19 -1 -8 3 -5 6 6 6 11
1 17 -2 13 -5z m1508 -50 c60 -31 119 -64 130 -73 11 -10 63 -35 115 -56 52
-21 99 -42 104 -46 18 -17 -22 -9 -95 17 -72 26 -88 34 -188 93 -30 18 -85 48
-122 66 -66 34 -92 55 -68 55 7 0 63 -25 124 -56z m-1245 29 c0 -8 -5 -13 -12
-11 -18 6 -21 25 -3 25 8 0 15 -7 15 -14z m-416 -8 c-6 -16 -54 -21 -54 -7 0
15 12 22 36 22 17 0 22 -4 18 -15z m366 10 c0 -8 -52 -26 -58 -20 -3 2 6 9 19
14 28 11 39 13 39 6z m-504 -23 c-10 -2 -22 0 -28 6 -6 6 0 7 19 4 21 -5 23
-7 9 -10z m1647 -81 c142 -74 374 -181 459 -211 35 -13 43 -12 129 24 50 20
93 35 96 32 3 -2 -43 -27 -101 -55 l-107 -51 -37 24 c-110 69 -113 70 -308 76
l-181 5 -59 37 c-58 36 -59 38 -57 79 2 24 7 45 12 49 6 3 6 11 1 20 -11 17
-13 50 -4 50 3 0 74 -36 157 -79z m1596 -32 c210 -108 227 -119 193 -119 -27
0 -346 160 -387 194 -57 47 -2 26 194 -75z m-2374 -52 c6 -14 -5 -23 -61 -49
-66 -31 -74 -32 -184 -31 -230 2 -247 3 -220 14 14 6 42 21 62 35 20 14 103
53 184 85 81 33 156 66 168 75 20 14 21 13 32 -48 6 -35 15 -71 19 -81z m4490
-8 l47 -21 -134 -62 c-123 -58 -402 -197 -561 -280 l-67 -35 -42 18 c-42 17
-62 41 -36 41 8 0 93 42 190 94 96 51 235 122 309 157 74 35 152 74 174 86 51
27 62 28 120 2z m-1216 -13 c-14 -13 -69 -35 -69 -28 0 10 38 30 59 31 8 1 12
-1 10 -3z m-3819 -36 c-8 -5 -19 -10 -25 -10 -5 0 -3 5 5 10 8 5 20 10 25 10
6 0 3 -5 -5 -10z m854 -9 c3 -4 -6 -6 -19 -3 -14 2 -25 6 -25 8 0 8 39 4 44
-5z m478 -230 c152 -53 276 -199 308 -361 17 -85 14 -276 -5 -351 -48 -186
-182 -321 -355 -359 -85 -19 -252 -9 -323 19 -135 53 -245 172 -289 314 -31
98 -33 342 -4 427 30 87 55 130 109 188 72 75 149 117 262 142 66 15 233 4
297 -19z m1111 14 c144 -30 272 -129 333 -259 42 -89 54 -151 54 -281 0 -248
-98 -423 -286 -512 -72 -34 -85 -37 -190 -41 -70 -3 -132 0 -161 7 -172 44
-300 167 -354 342 -33 106 -34 321 -2 424 54 169 176 283 344 319 84 19 178
19 262 1z m-2231 -16 c153 -33 243 -138 242 -284 0 -103 -43 -180 -130 -231
-17 -10 -14 -14 29 -34 56 -26 113 -89 127 -139 14 -49 13 -135 -2 -185 -18
-59 -98 -137 -173 -167 -58 -23 -71 -24 -381 -27 l-321 -3 -6 68 c-4 37 -7
281 -7 541 l0 472 285 0 c172 0 305 -4 337 -11z m3038 -190 c0 -234 -10 -226
109 -83 42 49 114 134 159 187 l84 97 130 0 c103 0 128 -3 121 -12 -6 -7 -90
-111 -189 -231 -98 -120 -185 -226 -192 -236 -15 -21 -18 -17 148 -205 175
-198 329 -381 330 -388 0 -5 -60 -8 -134 -8 l-134 0 -64 73 c-35 39 -115 134
-177 209 -62 76 -117 141 -123 144 -5 4 -23 -6 -39 -22 l-28 -29 -3 -185 -3
-185 -106 -3 -106 -3 -6 83 c-9 110 -9 983 0 991 3 4 55 7 115 7 l108 0 0
-201z m-3884 34 c4 -39 3 -73 -3 -82 -5 -9 -38 -26 -74 -38 -73 -25 -80 -19
-55 42 14 33 14 36 1 25 -26 -22 -25 -6 2 29 26 33 99 91 114 91 4 0 11 -30
15 -67z m-6 -197 l0 -54 -137 -57 c-254 -106 -646 -265 -652 -265 -10 0 -11
121 -1 140 14 26 99 71 245 129 72 29 150 64 175 78 25 14 59 28 75 30 66 9
105 11 100 3 -13 -21 36 -18 84 5 30 15 62 24 74 21 12 -3 16 -3 8 0 -11 5
-11 8 0 15 25 16 29 10 29 -45z m4959 9 c32 -42 35 -79 11 -130 -25 -52 -55
-77 -160 -134 -74 -40 -107 -51 -95 -30 4 5 -1 19 -10 29 -9 10 -14 23 -11 28
3 5 -3 20 -14 32 -11 12 -17 26 -15 30 3 4 -2 13 -10 20 -13 11 -4 18 57 50
147 75 224 121 193 115 -24 -4 -26 -3 -10 4 32 15 42 13 64 -14z m-5339 -20
c0 -5 -49 -31 -87 -46 -39 -15 -18 5 32 30 41 21 55 25 55 16z m-120 -54 c0
-9 -41 -23 -49 -16 -3 4 28 20 47 24 1 1 2 -3 2 -8z m-120 -51 c-8 -5 -19 -10
-25 -10 -5 0 -3 5 5 10 8 5 20 10 25 10 6 0 3 -5 -5 -10z m6555 -21 c42 -19
94 -59 106 -81 12 -22 1 -47 -12 -27 -6 9 -9 2 -9 -22 0 -45 -18 -62 -101 -95
-79 -31 -167 -40 -240 -25 -124 26 -207 122 -163 189 17 26 118 77 133 68 5
-4 13 -1 17 5 9 16 230 6 269 -12z m-5936 -281 c1 -62 4 -144 8 -183 6 -64 5
-69 -10 -56 -10 7 -17 9 -17 4 0 -5 -7 -10 -15 -10 -8 0 -15 4 -15 9 0 5 -10
6 -21 3 -16 -5 -19 -4 -14 6 6 9 4 11 -7 6 -9 -3 -25 1 -37 10 -12 8 -30 16
-39 17 -9 2 -22 12 -28 24 -6 12 -14 19 -17 15 -4 -3 -7 1 -7 11 0 9 -5 14
-10 11 -6 -4 -7 -11 -4 -17 5 -7 2 -8 -7 -2 -14 9 -19 10 -41 13 -8 1 -9 4 -3
9 6 4 11 13 13 21 3 12 0 12 -12 1 -10 -8 -16 -8 -16 -2 0 16 -67 45 -81 36
-9 -5 -10 -2 -6 9 4 12 1 17 -9 17 -11 0 -15 6 -11 20 5 18 3 18 -18 4 -22
-14 -23 -13 -27 16 -3 22 -1 30 11 30 14 0 14 1 1 10 -12 8 -10 10 10 10 14
-1 79 -23 145 -50 72 -30 110 -41 95 -29 -16 12 -18 17 -7 13 10 -4 17 -3 16
2 -3 20 2 34 12 34 13 0 40 26 33 32 -3 3 7 3 21 1 23 -5 30 3 26 30 0 4 4 7
9 7 6 0 10 -5 10 -11 0 -5 5 -7 10 -4 6 4 7 11 4 17 -4 6 1 8 15 3 14 -4 23
-1 27 9 3 9 7 16 9 16 2 0 3 -51 4 -112z m5244 -33 c-3 -9 -8 -14 -10 -11 -3
3 -2 9 2 15 9 16 15 13 8 -4z m-157 -10 c-11 -8 -24 -15 -30 -15 -5 0 -1 7 10
15 10 8 24 14 29 14 6 0 1 -6 -9 -14z m129 -15 c3 -5 1 -10 -4 -10 -6 0 -11 5
-11 10 0 6 2 10 4 10 3 0 8 -4 11 -10z m-45 -15 c-7 -9 -15 -13 -19 -10 -3 3
1 10 9 15 21 14 24 12 10 -5z m-5509 -22 c12 -16 12 -17 -2 -6 -9 7 -19 10
-22 6 -4 -3 -7 -1 -7 5 0 17 16 15 31 -5z m5590 -2 c-33 -25 -81 -53 -81 -47
0 8 83 66 94 66 6 0 0 -9 -13 -19z m-112 5 c-15 -14 -109 -55 -109 -47 0 10
78 51 99 51 8 0 12 -2 10 -4z m-234 -96 c-4 -6 5 -10 22 -9 25 2 55 -11 122
-52 31 -20 26 -24 -29 -25 -28 0 -50 3 -50 7 0 4 -8 10 -17 13 -21 7 -83 58
-83 69 0 4 9 7 21 7 11 0 17 -5 14 -10z m-5403 -348 c81 -39 139 -101 169
-181 30 -75 32 -212 5 -291 -25 -73 -100 -146 -181 -179 -33 -13 -62 -25 -63
-27 -5 -3 28 -52 180 -266 65 -91 118 -168 118 -171 0 -6 -292 -7 -312 -1 -18
5 -79 99 -192 295 -73 128 -82 135 -162 123 l-44 -6 0 -207 0 -208 -115 -2
-115 -2 0 581 0 581 323 -3 322 -3 67 -33z m1351 8 c0 -14 -1 -66 -2 -116 l-1
-90 -112 3 c-62 2 -127 3 -145 3 -18 0 -108 -2 -202 -3 -93 -1 -167 1 -165 4
2 4 -13 3 -34 -2 -20 -5 -41 -9 -45 -9 -4 0 -6 -51 -5 -112 l3 -113 281 -3
281 -2 2 -38 c1 -20 -1 -67 -5 -104 l-6 -68 -279 0 -279 0 0 -115 0 -115 395
0 395 0 0 -120 0 -120 -121 0 c-71 0 -118 4 -114 9 3 5 1 13 -5 16 -6 4 -9 1
-8 -6 4 -16 -26 -23 -60 -13 l-27 7 25 8 c24 8 24 8 -5 7 -33 -1 -115 21 -115
31 0 4 -8 7 -18 8 -10 1 -43 13 -75 27 -31 15 -67 27 -79 28 -13 1 -81 -22
-151 -50 -70 -29 -132 -50 -137 -47 -6 4 -17 -1 -26 -9 -9 -9 -20 -14 -25 -11
-5 4 -9 2 -9 -2 0 -5 -15 -8 -32 -8 l-33 0 -5 375 c-3 206 -4 466 -2 578 l3
202 471 -2 472 -3 -1 -25z m401 8 c7 -13 68 -126 134 -253 185 -355 338 -635
347 -635 11 0 182 326 353 672 l117 237 128 1 128 0 -7 -22 c-3 -13 -18 -45
-32 -73 -14 -27 -91 -198 -172 -380 -81 -181 -162 -364 -181 -405 -18 -41 -56
-120 -85 -175 l-52 -100 -195 -3 -195 -3 -32 58 c-30 55 -510 1089 -510 1098
0 3 54 5 120 5 113 0 120 -1 134 -22z m640 -27 c-42 -143 -154 -441 -165 -441
-10 0 -119 265 -179 438 l-19 52 189 0 189 0 -15 -49z m917 -138 c2 -215 2
-501 0 -780 l-1 -193 -109 0 -109 0 -4 58 c-8 100 -9 629 -2 870 l7 232 109 0
108 0 1 -187z m1059 113 c0 -40 -3 -93 -6 -117 l-6 -44 -82 2 c-95 3 -232 3
-401 0 l-120 -2 0 -115 0 -115 263 -3 262 -2 0 -89 c0 -49 -3 -96 -6 -105 -5
-14 -38 -16 -265 -16 l-259 0 0 -115 0 -115 310 0 310 0 0 -62 c0 -35 -4 -68
-8 -75 -4 -7 -57 -33 -117 -59 l-110 -46 -307 -5 -308 -4 0 580 0 581 425 0
425 0 0 -74z m530 -168 c168 -360 187 -397 216 -410 23 -11 28 -9 45 12 19 26
233 472 277 578 l26 62 88 0 88 0 21 -47 c93 -207 280 -585 300 -607 4 -5 18
-6 31 -3 20 5 45 50 140 244 64 131 135 277 157 326 l40 87 125 0 c69 0 126
-2 126 -5 0 -3 -20 -56 -44 -118 -25 -62 -88 -224 -141 -362 -108 -278 -182
-456 -245 -587 l-41 -88 -123 0 -124 0 -27 58 c-15 31 -64 140 -110 242 -45
102 -102 228 -127 280 l-44 95 -49 -115 c-111 -265 -165 -390 -204 -473 l-42
-88 -135 3 -135 3 -39 88 c-39 86 -289 708 -380 945 l-48 122 133 0 132 0 113
-242z m322 219 c-35 -8 -41 -13 -37 -28 4 -11 2 -19 -4 -19 -6 0 -11 5 -11 11
0 13 -22 -8 -37 -35 -9 -16 -12 -11 -26 30 -8 26 -14 51 -12 54 2 3 41 3 87 1
80 -4 82 -5 40 -14z m828 20 c0 -2 -9 -33 -21 -68 -29 -88 -47 -121 -62 -112
-9 5 -9 4 0 -8 10 -12 8 -17 -8 -27 -25 -16 -51 1 -42 25 5 12 3 14 -8 8 -11
-6 -12 -5 -2 5 10 10 15 11 27 1 13 -11 13 -9 3 12 -6 14 -16 23 -21 20 -5 -4
-6 2 -2 13 6 15 5 17 -5 7 -17 -17 -26 -16 -26 2 0 8 3 15 7 15 3 0 6 9 6 20
0 11 -3 20 -7 20 -4 0 1 16 10 35 16 34 16 34 84 35 37 0 67 -2 67 -3z m-830
-47 c0 -5 -2 -10 -4 -10 -3 0 -8 5 -11 10 -3 6 -1 10 4 10 6 0 11 -4 11 -10z
m-45 -30 c3 -5 -1 -10 -10 -10 -9 0 -13 5 -10 10 3 6 8 10 10 10 2 0 7 -4 10
-10z m-501 -1028 c-18 -4 -64 24 -64 39 0 5 18 -1 40 -13 25 -15 34 -24 24
-26z m-3854 -10 c0 -4 -17 -15 -38 -24 l-37 -18 46 5 c50 6 116 -15 126 -41 3
-9 12 -12 25 -8 13 4 28 -1 41 -14 22 -20 68 -46 100 -58 9 -3 17 -10 17 -15
0 -5 12 -9 27 -9 l26 0 -24 -21 c-34 -30 -72 -44 -78 -28 -2 7 -14 23 -27 36
-14 14 -20 30 -17 43 4 16 1 20 -20 20 -36 0 -57 -10 -57 -26 0 -17 3 -16 -38
-5 -27 8 -34 7 -42 -9 -8 -15 -16 -17 -45 -10 -32 7 -35 6 -35 -16 0 -17 6
-24 20 -24 11 0 20 -4 20 -10 0 -5 7 -7 15 -4 8 4 15 12 15 18 0 7 15 12 35
13 29 1 40 -5 60 -31 14 -18 25 -35 25 -38 0 -7 -33 -3 -46 5 -7 4 -24 -5 -38
-18 -15 -14 -33 -25 -41 -25 -19 0 -45 28 -62 67 -14 36 -19 38 -56 24 -22 -9
-28 -5 -52 29 -15 22 -30 39 -34 38 -18 -2 -31 3 -31 12 0 6 18 10 40 10 60 0
143 20 165 40 22 20 43 14 78 -21 10 -11 23 -19 30 -19 6 0 -7 19 -30 42 l-42
41 -88 -22 c-89 -23 -152 -48 -165 -66 -4 -5 -8 -7 -8 -3 0 9 -138 -28 -170
-46 -63 -35 -277 -98 -350 -103 -55 -3 -71 -2 -60 6 8 6 30 11 48 11 37 0 126
29 300 96 62 25 136 51 165 59 93 25 178 58 168 65 -6 3 8 14 32 24 23 9 48
20 56 25 19 9 51 12 51 3z m1920 -29 c-19 -2 -44 -5 -56 -8 -28 -6 -74 -53
-74 -75 0 -10 -9 -29 -20 -43 -23 -29 -25 -38 -7 -31 42 16 -24 -108 -68 -128
-19 -8 -27 -6 -45 12 -62 62 -34 171 55 218 62 32 161 62 205 60 39 -1 40 -2
10 -5z m184 -9 c64 -17 177 -88 196 -124 45 -83 -26 -186 -156 -229 -93 -30
-235 -27 -184 4 6 3 10 13 10 21 0 20 87 134 103 135 7 1 16 1 20 0 5 -1 11 8
14 19 4 17 14 20 53 20 33 0 54 6 66 18 17 16 15 17 -49 20 -85 4 -79 22 6 22
l62 0 -29 25 c-34 29 -118 62 -189 74 -42 7 -45 9 -18 10 18 0 61 -6 95 -15z
m-2324 -39 c-19 -7 -46 -13 -60 -13 -17 0 -10 4 20 13 59 17 84 17 40 0z m545
-56 c4 -6 13 -8 21 -5 8 3 14 1 14 -4 0 -15 -36 -12 -50 5 -8 9 -9 15 -2 15 6
0 14 -5 17 -11z m4339 -28 c91 -42 175 -98 176 -118 0 -6 -9 -27 -20 -46 -12
-19 -23 -58 -27 -86 -3 -28 -10 -51 -15 -51 -5 0 -35 13 -67 29 -52 27 -58 33
-59 62 -1 41 20 81 58 111 l31 24 -63 34 c-35 18 -78 41 -96 50 -18 9 -29 19
-26 23 11 11 17 9 108 -32z m751 -46 c64 -30 126 -61 137 -69 19 -14 19 -15
-14 -29 -91 -39 -123 -52 -130 -49 -5 1 -8 -2 -8 -8 0 -5 -18 -15 -40 -21 -36
-11 -46 -9 -117 21 -43 18 -92 46 -108 62 -17 15 -36 28 -43 28 -7 0 -12 5
-12 10 0 11 57 39 143 70 26 9 53 22 60 29 6 6 12 11 14 11 1 0 55 -25 118
-55z m-5589 1 c40 -41 62 -73 31 -48 -8 7 -25 7 -54 -1 -40 -10 -43 -9 -68 17
-35 38 -51 23 -20 -18 14 -18 22 -35 19 -38 -3 -3 11 -16 31 -28 36 -22 66
-21 64 2 0 9 -2 10 -5 1 -6 -13 -64 3 -64 17 0 15 21 23 32 12 7 -7 17 -7 30
1 16 10 22 8 38 -10 10 -13 27 -26 39 -31 15 -5 18 -11 10 -22 -8 -11 -12 -12
-16 -3 -3 10 -9 10 -26 -1 -12 -7 -49 -19 -82 -26 -33 -8 -69 -20 -80 -27 -26
-17 -41 -16 -65 4 -26 22 -26 53 0 60 11 3 20 9 20 14 0 15 54 -2 72 -22 20
-23 38 -25 38 -4 0 8 -9 15 -20 15 -13 0 -20 7 -20 20 0 11 -8 23 -17 26 -32
11 -78 34 -68 34 6 0 -3 9 -18 19 -36 23 -35 35 1 38 15 1 36 4 47 6 70 15 86
21 91 28 8 14 13 11 60 -35z m364 -1 c29 -30 32 -37 20 -45 -21 -14 -32 -12
-25 3 4 6 0 4 -8 -5 -17 -21 -27 -23 -27 -4 0 7 -9 25 -21 40 -43 54 10 64 61
11z m-1870 15 c0 -5 -2 -10 -4 -10 -3 0 -8 5 -11 10 -3 6 -1 10 4 10 6 0 11
-4 11 -10z m634 -5 c13 -35 -30 -70 -47 -39 -9 15 -11 15 -21 2 -18 -25 -53
-27 -93 -7 -22 11 -39 15 -41 9 -5 -15 -22 -12 -22 4 0 23 20 31 95 37 118 10
123 10 129 -6z m-346 -30 c-21 -19 -46 -35 -57 -35 -10 0 -24 -7 -31 -15 -10
-13 -9 -15 9 -15 12 0 31 5 41 10 16 9 18 8 13 -6 -5 -13 -2 -15 18 -9 21 7
22 6 10 -9 -7 -9 -9 -16 -3 -16 5 0 28 -17 50 -38 22 -21 61 -51 86 -67 25
-16 44 -30 42 -32 -5 -6 -115 37 -121 47 -8 14 -163 100 -179 100 -8 0 -18 5
-22 12 -5 8 -2 9 10 5 9 -4 15 -3 12 2 -9 14 35 52 88 77 70 32 78 30 34 -11z
m3400 16 c-2 -3 -19 -28 -38 -54 -19 -27 -47 -69 -62 -95 -29 -52 -51 -58
-118 -30 -19 8 -43 18 -52 21 -27 9 -22 20 21 55 41 33 57 40 45 21 -3 -6 6
-3 22 7 15 11 35 18 44 16 10 -2 20 10 29 33 12 34 14 35 62 34 27 -1 48 -5
47 -8z m-2403 -29 c22 -20 45 -56 45 -71 0 -21 -81 -4 -109 23 -15 14 -34 26
-42 26 -10 1 -9 3 4 11 9 6 26 7 37 4 13 -4 22 -1 26 9 8 20 14 20 39 -2z
m809 12 c38 -15 13 -27 -248 -123 -332 -123 -456 -158 -456 -132 0 11 148 61
180 61 11 0 20 4 20 10 0 5 7 7 15 4 8 -3 31 3 52 14 49 25 77 37 138 57 54
19 82 31 190 81 75 35 85 37 109 28z m1028 -82 c76 -65 97 -87 87 -94 -10 -7
-9 -8 5 -4 20 7 59 -21 50 -35 -3 -5 1 -6 9 -4 7 3 26 -6 43 -20 16 -14 73
-53 126 -86 96 -59 120 -79 99 -79 -6 0 -11 -7 -11 -15 0 -18 -39 -29 -107
-30 -29 0 -53 -3 -53 -7 0 -12 -38 -10 -45 2 -3 6 -14 9 -23 9 -15 -1 -15 -2
1 -6 9 -2 17 -9 17 -15 0 -5 -6 -8 -14 -5 -8 3 -20 -1 -27 -9 -6 -8 -14 -12
-16 -10 -3 2 -21 -1 -42 -9 -20 -7 -53 -11 -74 -10 -20 2 -37 -1 -37 -6 0 -5
-9 -9 -21 -9 -15 0 -19 -4 -15 -16 5 -12 2 -15 -10 -10 -10 4 -30 -4 -50 -19
-32 -25 -47 -22 -22 3 9 9 9 12 0 12 -7 0 -12 -4 -12 -10 0 -5 -6 -10 -12 -10
-8 0 -13 -16 -14 -44 -1 -49 -17 -76 -65 -112 -45 -33 -55 -31 -68 19 -14 54
-46 106 -72 115 -18 7 -16 10 17 26 51 24 129 32 149 16 10 -8 19 -9 28 -3 6
5 26 15 42 21 115 42 274 105 295 116 14 7 44 19 68 26 23 7 42 16 42 19 0 3
-9 17 -19 30 -18 24 -19 24 -37 6 -10 -10 -44 -30 -76 -45 -32 -15 -65 -33
-73 -40 -7 -6 -24 -11 -37 -9 -13 1 -36 -3 -51 -9 -16 -7 -34 -12 -40 -12 -7
0 -6 -4 3 -10 11 -8 7 -9 -15 -4 -47 10 -50 10 -47 -4 2 -9 -4 -11 -18 -7 -12
4 -27 1 -35 -5 -8 -7 -21 -10 -29 -7 -8 3 -20 -1 -26 -9 -7 -8 -18 -14 -25
-14 -7 0 -18 -6 -24 -14 -7 -8 -21 -13 -32 -11 -10 2 -19 0 -19 -6 0 -5 -11
-9 -25 -9 -14 0 -25 -5 -25 -10 0 -7 -6 -7 -19 0 -11 5 -28 10 -38 10 -27 0
-95 49 -87 62 5 7 2 8 -5 3 -8 -4 -25 4 -44 22 -18 16 -45 40 -62 52 -16 13
-50 41 -75 65 -25 23 -57 49 -72 59 -16 10 -28 21 -28 26 0 5 19 18 43 30 70
34 631 239 650 238 10 -1 64 -39 119 -85z m1780 56 c64 -30 98 -73 98 -124 0
-42 -31 -79 -93 -111 -46 -23 -67 -27 -173 -31 -93 -3 -134 0 -177 12 -70 20
-137 79 -137 120 0 48 30 95 74 118 78 41 116 48 236 45 100 -2 122 -6 172
-29z m-3282 -24 c28 -24 30 -29 16 -42 -13 -13 -18 -11 -46 16 -17 18 -29 36
-25 42 10 16 21 12 55 -16z m-435 -20 c9 -13 24 -24 35 -24 24 0 26 -18 4 -27
-17 -6 -96 18 -152 48 -38 20 -28 26 45 26 44 0 55 -4 68 -23z m1159 -29 c-62
-26 -86 -42 -109 -73 -16 -22 -41 -42 -55 -45 -61 -12 -587 -211 -603 -229
-12 -12 -26 -17 -40 -13 -16 5 -18 4 -8 -3 11 -8 10 -11 -7 -16 -11 -4 -24 -6
-28 -4 -5 1 -26 -6 -47 -16 -48 -23 -75 -16 -235 60 -62 30 -115 54 -118 54
-3 0 -33 13 -67 28 -34 16 -91 39 -127 51 -82 29 -110 58 -110 113 0 37 2 40
23 33 12 -3 33 -9 47 -11 l25 -4 -24 10 c-13 6 -21 13 -19 16 6 6 130 -44 138
-55 3 -4 41 -20 85 -36 44 -15 114 -44 155 -65 41 -20 87 -40 103 -44 15 -3
36 -15 46 -25 18 -18 21 -18 127 9 98 25 411 134 649 225 235 91 240 92 259
82 17 -8 7 -15 -60 -42z m-1597 -46 c-3 -17 -22 -28 -93 -54 -125 -45 -134
-48 -134 -37 0 6 35 24 78 42 42 17 93 40 112 50 43 24 41 24 37 -1z m5499 2
c9 -9 461 -241 747 -384 l159 -79 -36 -19 c-20 -10 -77 -37 -128 -60 -51 -23
-146 -65 -210 -95 l-118 -54 -59 30 c-32 17 -62 30 -67 30 -17 0 -355 175
-376 194 -24 23 -37 9 -38 -39 0 -16 -6 -52 -13 -79 -11 -43 -14 -46 -26 -32
-14 16 -11 105 5 166 4 14 4 22 -1 18 -6 -6 -61 21 -294 144 -25 13 -46 28
-48 34 -6 19 43 47 222 129 94 42 184 83 200 90 34 17 67 19 81 6z m-4679 -37
c-3 -3 -12 -4 -19 -1 -8 3 -5 6 6 6 11 1 17 -2 13 -5z m4183 -19 c0 -1 -18
-49 -40 -108 -32 -84 -40 -119 -40 -172 l0 -66 -87 -41 c-49 -22 -149 -66
-223 -98 -74 -32 -190 -85 -257 -118 -67 -33 -123 -56 -125 -51 -4 12 -73 -11
-130 -44 -42 -24 -114 -35 -103 -16 4 5 2 9 -4 9 -18 0 -63 54 -87 105 -21 45
-22 55 -11 90 6 22 23 50 37 63 32 29 196 109 405 197 55 24 152 66 215 95
244 109 316 139 340 138 19 0 61 10 67 16 4 4 43 4 43 1z m-1840 -140 c19 -12
85 -48 145 -80 61 -32 121 -66 135 -76 25 -17 26 -17 41 10 41 72 144 110 205
78 l29 -16 -51 -1 c-61 0 -110 -29 -137 -80 -15 -29 -17 -49 -12 -115 4 -44 8
-107 10 -139 4 -69 3 -68 109 -117 41 -19 75 -37 76 -40 0 -4 -30 -19 -67 -34
-38 -15 -117 -48 -178 -75 -60 -26 -191 -78 -290 -115 -249 -92 -271 -103
-332 -162 -29 -29 -57 -53 -61 -53 -9 0 -38 -81 -47 -132 -4 -21 -11 -38 -15
-38 -9 0 -24 43 -35 98 -5 26 -15 36 -46 50 -52 22 -49 30 6 22 37 -6 43 -4
34 7 -6 7 -22 13 -35 13 -12 0 -26 5 -30 11 -5 9 1 10 20 5 41 -10 31 9 -11
21 l-38 10 34 2 c40 1 36 10 -11 22 -26 7 -19 8 32 5 36 -1 57 -1 48 1 -10 3
-18 7 -18 10 0 3 8 12 18 19 9 7 12 14 6 14 -6 0 -17 -7 -24 -15 -15 -19 -38
-19 -70 0 l-25 15 31 -6 c20 -4 34 -1 39 6 6 10 2 11 -16 7 -45 -11 -52 6 -17
43 l33 33 -32 -16 c-35 -18 -73 -62 -73 -84 0 -8 -4 -11 -10 -8 -5 3 -10 -3
-10 -13 0 -24 -22 -43 -37 -34 -6 4 -14 22 -18 40 -3 17 -11 32 -17 32 -16 0
-2 79 18 101 9 10 23 19 30 19 7 0 11 6 8 13 -6 16 170 111 191 103 8 -3 19 2
23 11 6 10 17 14 31 10 13 -3 19 -1 15 5 -4 6 1 8 13 4 13 -4 30 1 46 14 15
12 57 32 94 44 100 35 216 83 307 127 86 42 90 44 81 29 -3 -5 0 -7 9 -4 8 3
49 -11 92 -30 42 -20 79 -36 82 -36 5 0 -7 115 -14 134 -3 7 -31 26 -62 42
-31 15 -59 31 -62 34 -7 8 -199 100 -209 100 -32 0 -66 91 -56 150 7 43 13 43
75 5z m-1314 -223 c86 -64 90 -69 92 -107 4 -74 -2 -77 -65 -39 -31 19 -61 34
-66 34 -4 0 -6 4 -3 9 4 5 -2 8 -11 6 -20 -3 -107 39 -140 69 -13 11 -23 16
-23 12 0 -4 -7 -1 -15 8 -16 16 -29 130 -14 120 5 -3 9 0 9 7 0 8 5 8 18 -2 9
-7 7 -2 -5 12 -13 14 -23 35 -23 47 0 19 11 13 78 -43 42 -36 118 -96 168
-133z m3190 85 c5 -1 7 -12 6 -24 -2 -13 0 -28 4 -35 14 -23 12 -46 -4 -40
-12 4 -14 1 -8 -14 5 -14 4 -16 -4 -8 -17 17 -31 90 -24 120 4 17 9 22 14 14
4 -6 11 -12 16 -13z m-3621 -51 c22 -17 46 -36 53 -44 8 -7 30 -25 50 -40 21
-15 46 -35 56 -44 11 -10 24 -18 28 -18 5 0 6 -6 2 -12 -4 -7 -4 -10 0 -6 8 7
175 -98 211 -133 11 -10 33 -29 49 -42 l30 -24 -50 -11 c-27 -7 -67 -13 -89
-14 -22 -2 -42 -6 -45 -9 -7 -8 -447 -118 -560 -139 -36 -7 -72 -17 -81 -21
-21 -11 -149 -46 -269 -73 l-95 -23 -3 -36 c-2 -24 -7 -35 -14 -31 -7 5 -9 1
-5 -9 3 -9 2 -19 -2 -21 -5 -3 -16 15 -26 40 -12 33 -21 43 -33 40 -10 -3 -53
-15 -97 -27 -209 -56 -195 -46 -202 -142 -4 -46 -10 -74 -16 -70 -6 3 -7 43
-2 103 6 89 4 102 -16 146 -13 27 -55 82 -93 122 -67 70 -90 112 -63 112 8 0
8 3 2 8 -24 16 -169 189 -194 230 -7 11 -19 8 -60 -12 -28 -15 -51 -30 -51
-35 0 -7 -30 -8 -49 -2 -3 0 6 13 20 27 42 45 151 89 369 149 143 40 183 42
217 15 15 -12 43 -28 62 -36 25 -10 32 -19 28 -33 -3 -14 0 -17 14 -14 23 6
52 -15 45 -33 -3 -7 8 -19 24 -27 24 -12 28 -12 23 -1 -3 8 -10 14 -17 15 -6
0 -3 4 6 7 10 4 49 5 88 2 38 -3 70 -3 70 0 0 4 -7 15 -15 26 -8 10 -14 24
-15 29 0 6 4 4 9 -4 5 -7 22 -13 37 -13 36 0 82 -27 64 -38 -8 -5 -9 -10 -1
-14 6 -4 30 4 54 18 24 15 53 26 65 26 29 0 28 5 -10 53 l-33 42 49 -38 c41
-31 51 -35 60 -23 6 8 37 22 69 31 37 11 57 21 54 29 -3 7 16 24 42 38 37 21
62 27 119 29 40 1 72 6 72 11 0 11 13 4 65 -36z m2229 -26 c4 0 4 4 1 10 -3 6
1 7 10 3 11 -4 13 -8 6 -13 -7 -4 -2 -11 13 -19 13 -8 29 -11 34 -7 15 9 20
-15 9 -49 -5 -16 -15 -52 -21 -80 -15 -60 -30 -65 -85 -31 -43 27 -82 85 -59
87 10 0 10 2 1 6 -7 2 -13 16 -13 29 0 14 4 22 10 19 14 -9 12 8 -2 24 -9 9
-9 12 -1 7 6 -3 14 0 16 6 4 10 8 10 14 1 6 -8 13 -8 27 3 11 8 14 14 8 14 -7
0 -12 7 -12 17 0 13 3 12 19 -5 10 -12 21 -22 25 -22z m-50 15 c3 -8 1 -15 -3
-15 -5 0 -11 7 -15 15 -3 8 -1 15 3 15 5 0 11 -7 15 -15z m-2505 -16 c-18 -11
-56 -11 -63 0 -9 14 1 17 40 13 25 -3 32 -7 23 -13z m2631 1 c-8 -5 -22 -9
-30 -9 -10 0 -8 3 5 9 27 12 43 12 25 0z m-596 -61 c14 -7 23 -16 20 -21 -3
-5 -1 -7 4 -6 14 4 122 -55 122 -67 -1 -17 -192 -98 -200 -85 -4 6 -11 12 -16
12 -5 0 -39 18 -76 40 -37 22 -73 38 -80 36 -7 -3 24 -26 70 -53 45 -26 85
-52 88 -57 10 -16 -34 -8 -87 16 -135 60 -193 89 -184 92 44 16 302 103 307
103 4 1 18 -4 32 -10z m-2219 -18 c-16 -14 -55 -23 -55 -12 0 9 20 17 50 20 8
1 10 -2 5 -8z m5483 -66 c0 -15 -8 -27 -18 -30 -10 -3 -24 -13 -32 -23 -12
-15 -11 -15 14 1 15 9 30 17 33 17 12 0 4 -67 -11 -88 -19 -28 -405 -222 -440
-222 -43 0 -21 45 44 89 40 28 36 39 -7 16 -17 -8 -31 -12 -31 -7 0 5 11 15
25 22 13 7 22 16 20 20 -3 4 12 15 33 25 130 59 339 169 352 185 8 11 16 19
16 20 1 0 2 -11 2 -25z m-1268 -73 c36 -20 73 -37 84 -38 10 -1 21 -6 25 -11
3 -6 18 -13 33 -17 15 -3 39 -18 52 -31 14 -14 45 -34 68 -44 93 -40 363 -174
369 -183 3 -5 9 -9 13 -9 3 1 22 1 41 1 27 0 33 -3 29 -15 -5 -11 -2 -13 12
-8 12 4 15 3 10 -5 -4 -7 -14 -12 -22 -12 -14 0 -93 -45 -104 -59 -3 -4 -24
-13 -48 -19 -23 -7 -40 -17 -37 -21 3 -5 -2 -12 -11 -15 -8 -3 -12 -2 -9 4 11
18 -4 11 -24 -11 -11 -12 -30 -23 -43 -24 -22 -3 -59 -18 -160 -64 -61 -28
-71 -27 -148 13 -349 179 -476 244 -601 309 -81 42 -149 74 -151 71 -3 -2 -5
3 -5 11 0 16 153 94 371 191 136 60 125 61 256 -14z m-2725 -81 c52 -20 161
-75 135 -68 -8 2 -26 7 -40 11 -24 7 -25 7 -5 -10 20 -16 19 -16 -5 -9 -14 4
-59 23 -100 42 -62 30 -72 37 -55 44 11 4 20 8 20 8 0 1 23 -8 50 -18z m3428
-71 c-13 -33 -21 -65 -18 -70 3 -6 1 -10 -6 -10 -18 0 -5 83 17 113 31 43 33
31 7 -33z m-1666 36 c0 -8 -6 -12 -15 -9 -11 5 -11 7 0 14 7 5 13 9 14 9 0 0
1 -6 1 -14z m-40 -32 c-3 -3 -12 -4 -19 -1 -8 3 -5 6 6 6 11 1 17 -2 13 -5z
m-37 -13 c0 -5 -7 -12 -16 -15 -14 -5 -15 -4 -4 9 14 17 20 19 20 6z m-1465
-31 c3 -6 -1 -7 -9 -4 -18 7 -21 14 -7 14 6 0 13 -4 16 -10z m-233 -81 l78
-39 -19 -36 c-10 -19 -25 -64 -32 -100 -8 -41 -18 -64 -26 -64 -18 0 -116 50
-125 64 -12 18 -10 196 3 196 6 0 20 -5 32 -11 15 -8 13 -3 -8 16 -29 25 -29
26 -5 19 14 -4 60 -24 102 -45z m-437 -167 c226 -133 416 -238 445 -247 14 -4
30 -11 35 -15 6 -4 60 -33 120 -65 61 -31 118 -62 128 -67 28 -14 5 -35 -59
-54 -30 -8 -56 -20 -59 -25 -9 -14 5 -11 90 16 43 13 80 23 82 22 1 -2 -25
-15 -60 -29 -250 -104 -240 -101 -273 -89 -30 11 -59 6 -119 -19 -11 -5 -38
-14 -60 -20 -41 -12 -76 -25 -109 -42 -12 -7 -16 -6 -11 1 10 16 -11 13 -25
-4 -7 -8 -28 -17 -49 -20 -37 -7 -56 -13 -102 -35 -15 -6 -38 -13 -53 -13 -14
-1 -26 -6 -26 -10 0 -5 -8 -7 -17 -6 -10 1 -25 1 -33 0 -13 -1 -13 -2 0 -11
11 -8 8 -10 -16 -8 -16 1 -43 -3 -60 -9 -16 -6 -64 -22 -106 -34 -43 -12 -76
-25 -74 -28 2 -3 -7 -7 -21 -8 -14 0 -29 -6 -33 -13 -4 -6 -11 -10 -16 -9 -23
4 -45 -2 -39 -11 4 -6 -7 -10 -26 -10 -37 0 -99 -20 -99 -32 0 -4 -9 -8 -21
-8 -12 0 -68 -14 -125 -32 -86 -26 -106 -29 -119 -18 -9 8 -13 20 -9 33 4 12
2 17 -4 13 -7 -4 -8 4 -2 25 5 18 7 36 4 40 -3 5 -1 9 4 9 6 0 13 7 16 16 4
10 2 13 -6 8 -7 -4 -8 -3 -4 5 9 15 52 33 206 88 121 43 581 196 745 247 44
13 94 29 110 35 17 5 68 22 115 37 47 15 97 34 113 42 30 18 37 38 10 28 -17
-6 -17 -5 0 8 16 13 24 56 10 56 -7 0 -315 -101 -906 -296 l-348 -115 -42 24
c-23 13 -82 48 -132 77 -49 30 -171 100 -270 157 -99 57 -181 107 -182 111 -3
7 1160 391 1262 416 16 4 50 -13 220 -112z m1832 -2 c1 -22 -3 -43 -10 -47 -8
-5 -4 -9 11 -13 40 -9 24 -24 -61 -56 -141 -54 -408 -165 -492 -204 -44 -21
-107 -47 -139 -58 l-60 -20 -74 66 c-99 89 -101 93 -90 150 14 71 17 79 27 63
5 -7 37 -30 72 -50 51 -29 65 -43 67 -64 2 -15 9 -27 15 -27 7 0 6 -5 -3 -11
-13 -10 -13 -10 0 -5 63 23 259 103 320 130 41 18 127 51 190 72 63 21 118 44
122 50 4 6 23 15 43 18 19 4 37 12 41 18 5 8 2 9 -9 5 -10 -3 -17 -4 -17 -1 0
2 10 9 23 14 12 5 22 9 22 9 1 1 1 -17 2 -39z m2143 -4 c0 -6 -99 -56 -182
-92 -43 -18 -78 -31 -78 -28 0 3 39 23 88 45 48 22 105 49 127 59 43 21 45 22
45 16z m-2255 -16 c-3 -5 -13 -10 -21 -10 -8 0 -12 5 -9 10 3 6 13 10 21 10 8
0 12 -4 9 -10z m624 -57 c64 -30 157 -75 206 -100 50 -26 185 -94 300 -152
116 -58 212 -107 215 -110 3 -4 19 -13 35 -21 17 -8 39 -23 49 -32 27 -24 4
-23 -51 2 -24 10 -43 15 -43 10 0 -6 7 -10 15 -10 8 0 15 -5 15 -12 0 -6 3 -8
6 -5 4 4 20 -3 35 -14 16 -11 29 -17 29 -14 0 4 8 -1 17 -11 16 -15 16 -17 -3
-31 -25 -19 -480 -243 -493 -243 -6 0 -11 4 -11 9 0 5 -66 42 -147 84 -82 41
-224 117 -318 169 -93 52 -242 132 -330 177 -88 46 -160 88 -160 95 0 20 244
129 450 201 l50 17 130 -65 c72 -35 166 -83 210 -106 125 -67 325 -160 325
-153 -1 4 -38 25 -83 48 -45 22 -201 101 -347 175 -146 73 -272 133 -280 131
-10 -2 -9 2 4 13 24 18 28 17 175 -52z m-4004 -151 c-6 -6 -60 39 -75 62 -6
10 9 1 34 -20 25 -21 44 -40 41 -42z m2940 48 c-3 -5 -12 -10 -18 -10 -7 0 -6
4 3 10 19 12 23 12 15 0z m-130 -49 c-16 -14 -55 -23 -55 -12 0 8 16 14 55 20
6 0 6 -2 0 -8z m2354 -43 c-2 -2 -17 -14 -34 -28 l-30 -25 29 32 c16 18 32 31
34 28 3 -3 3 -6 1 -7z m-3142 -64 c-3 -3 -12 -4 -19 -1 -8 3 -5 6 6 6 11 1 17
-2 13 -5z m-47 -13 c-8 -5 -26 -11 -40 -15 -21 -5 -20 -3 5 9 32 15 60 20 35
6z m-1805 -108 c-16 -75 -5 -143 29 -187 15 -21 89 -68 210 -135 102 -57 186
-105 186 -107 0 -8 -98 36 -155 69 -33 20 -92 52 -132 72 -39 20 -74 43 -77
51 -3 8 -10 13 -15 10 -12 -8 -56 59 -71 108 -15 47 -7 129 15 163 9 14 18 23
20 21 1 -1 -3 -31 -10 -65z m1620 47 c-3 -5 -14 -10 -23 -9 -14 0 -13 2 3 9
27 11 27 11 20 0z m-68 -26 c-3 -3 -12 -4 -19 -1 -8 3 -5 6 6 6 11 1 17 -2 13
-5z m-60 -20 c-3 -3 -12 -4 -19 -1 -8 3 -5 6 6 6 11 1 17 -2 13 -5z m1283 -36
c64 -39 343 -193 504 -278 176 -93 255 -154 242 -186 -8 -19 -8 -19 -16 1 -5
11 -9 14 -9 6 -1 -7 -7 -11 -16 -7 -9 3 -15 0 -15 -10 0 -8 -5 -12 -10 -9 -13
8 -52 -4 -45 -14 2 -5 -7 -13 -20 -19 -25 -11 -25 -13 -25 -141 0 -119 -2
-131 -20 -141 -22 -12 -25 -1 -39 145 -6 66 -9 77 -10 40 -5 -162 -10 -199
-28 -213 -16 -11 -19 -10 -25 15 -3 15 -10 73 -14 128 -8 98 -8 99 -15 45 -4
-30 -7 -89 -8 -130 -1 -45 -6 -81 -13 -88 -29 -29 -35 -12 -41 125 -4 91 -10
139 -19 144 -6 4 -29 -1 -50 -12 -22 -11 -80 -33 -131 -50 -51 -16 -111 -38
-134 -49 -24 -11 -46 -20 -50 -20 -4 0 -27 -7 -50 -16 l-43 -17 0 -66 c0 -67
-11 -104 -24 -82 -4 6 -12 9 -17 6 -5 -4 -9 1 -9 10 0 8 -4 23 -9 33 -6 9 -12
29 -15 43 -5 25 -6 25 -56 15 -27 -5 -50 -14 -50 -18 0 -4 -11 -8 -25 -8 -14
0 -25 -4 -25 -10 0 -5 -7 -10 -16 -10 -9 0 -28 -8 -42 -18 -31 -21 -75 -27
-69 -9 5 15 291 126 637 247 131 46 236 89 215 90 -24 0 -282 -89 -430 -150
-44 -17 -142 -54 -218 -81 -76 -27 -159 -58 -184 -69 -32 -14 -49 -17 -53 -9
-4 6 -9 9 -11 8 -2 -2 -40 16 -84 40 -44 25 -100 55 -125 69 -25 13 -74 41
-110 62 -36 20 -119 65 -185 100 -66 35 -147 79 -180 97 -33 18 -75 41 -92 50
-18 9 -33 19 -33 23 0 3 21 14 48 24 144 55 185 70 267 98 50 16 117 38 150
48 33 10 125 41 205 70 214 76 281 98 425 135 156 40 170 41 215 13z m-1473
-24 c-3 -3 -12 -4 -19 -1 -8 3 -5 6 6 6 11 1 17 -2 13 -5z m2143 -24 c43 -12
116 -81 136 -129 17 -41 18 -78 1 -41 -6 14 -14 27 -18 30 -3 3 -18 24 -32 47
-21 33 -36 45 -77 58 -61 20 -132 13 -161 -16 -14 -14 -19 -15 -19 -5 0 14 40
47 70 59 24 9 62 8 100 -3z m-2930 -394 c0 -1 -7 -3 -15 -3 -8 0 -15 4 -15 8
0 9 -40 24 -53 21 -5 -1 -6 2 -2 8 4 6 21 2 46 -10 21 -11 39 -22 39 -24z m45
-26 c3 -6 -1 -7 -9 -4 -18 7 -21 14 -7 14 6 0 13 -4 16 -10z"/>
<path d="M4545 8399 c3 -4 1 -19 -5 -34 -18 -48 -22 -88 -8 -96 7 -5 38 -9 68
-9 61 0 139 18 123 28 -19 13 -32 48 -22 63 5 7 9 24 9 37 0 22 -2 23 -85 21
-46 -1 -82 -5 -80 -10z"/>
<path d="M6572 8384 c-15 -10 -22 -11 -22 -3 0 15 -56 4 -75 -15 -12 -12 -11
-15 6 -19 12 -3 31 -2 44 3 13 5 26 6 29 3 3 -4 12 1 19 11 10 13 20 16 42 10
l30 -8 -30 -7 -30 -7 36 -1 c42 -1 49 3 42 30 -7 24 -58 26 -91 3z"/>
<path d="M6726 8384 c-10 -25 0 -29 71 -27 55 2 64 -1 59 -14 -5 -13 -4 -13 8
-4 10 9 25 6 64 -15 52 -27 51 -25 54 -114 1 -48 -5 -73 -20 -89 -10 -10 -10
-16 -1 -27 10 -12 15 -10 33 9 12 13 23 34 24 48 6 58 2 92 -13 109 -11 12
-13 20 -6 25 20 12 12 35 -13 35 -13 0 -30 9 -37 20 -9 14 -29 22 -56 26 -23
2 -58 11 -77 19 -46 20 -82 19 -90 -1z"/>
<path d="M6387 8339 c-12 -7 -16 -17 -12 -30 5 -14 2 -17 -8 -13 -9 3 -16 -3
-20 -15 -6 -25 -29 -27 -47 -6 -10 12 -16 13 -26 4 -18 -15 -18 -29 0 -29 22
0 28 -30 8 -37 -35 -13 -44 -48 -9 -40 17 5 30 -4 61 -40 31 -35 35 -44 20
-43 -34 4 -44 0 -44 -15 0 -14 19 -22 65 -28 28 -3 31 17 3 23 -15 4 -19 8
-11 13 9 6 5 19 -15 50 -15 23 -32 46 -39 50 -7 4 -13 13 -13 18 0 6 4 8 9 5
5 -3 14 8 20 24 6 17 21 34 35 40 15 5 26 16 26 23 0 8 11 19 25 25 14 6 25
16 25 22 0 13 -30 12 -53 -1z"/>
<path d="M6650 8291 c0 -15 24 -19 42 -7 14 8 22 6 35 -8 17 -18 17 -18 -9
-14 -30 6 -38 -6 -12 -16 19 -7 54 20 54 41 0 9 -16 13 -55 13 -30 0 -55 -4
-55 -9z"/>
<path d="M6530 8270 c8 -15 17 -19 34 -14 14 3 27 -1 35 -10 7 -9 18 -13 23
-10 12 8 -60 53 -85 54 -15 0 -16 -3 -7 -20z"/>
<path d="M7010 8272 c0 -4 9 -13 20 -20 20 -12 26 -6 12 13 -9 12 -32 18 -32
7z"/>
<path d="M6643 8227 c5 -15 37 -22 37 -9 0 5 -9 12 -21 15 -13 3 -19 1 -16 -6z"/>
<path d="M6790 8220 c0 -5 4 -10 9 -10 6 0 13 5 16 10 3 6 -1 10 -9 10 -9 0
-16 -4 -16 -10z"/>
<path d="M6420 8207 c0 -19 36 -50 52 -45 8 3 5 9 -10 17 -12 6 -22 18 -22 26
0 8 -4 15 -10 15 -5 0 -10 -6 -10 -13z"/>
<path d="M6476 8205 c21 -16 44 -19 44 -6 0 10 -24 21 -48 21 -13 0 -12 -3 4
-15z"/>
<path d="M6571 8211 c-10 -7 -10 -10 -1 -16 6 -4 16 -3 22 3 13 13 -4 23 -21
13z"/>
<path d="M6880 8213 c0 -4 5 -15 10 -23 8 -13 10 -13 10 2 0 9 -4 20 -10 23
-5 3 -10 3 -10 -2z"/>
<path d="M7048 8213 c7 -3 16 -2 19 1 4 3 -2 6 -13 5 -11 0 -14 -3 -6 -6z"/>
<path d="M6827 8203 c-9 -9 22 -43 40 -43 18 0 16 7 -7 30 -22 22 -24 23 -33
13z"/>
<path d="M6505 8170 c-18 -20 -18 -21 5 -12 13 5 26 14 28 20 6 19 -13 14 -33
-8z"/>
<path d="M6690 8175 c-31 -17 -57 -19 -62 -4 -2 7 -9 5 -17 -5 -11 -14 -11
-16 3 -16 9 0 16 -5 16 -11 0 -7 10 -5 25 5 13 9 31 16 39 16 14 0 32 18 24
25 -1 2 -14 -3 -28 -10z"/>
<path d="M6750 8181 c0 -5 10 -15 23 -24 l22 -15 -22 -23 c-20 -20 -25 -21
-47 -10 -26 14 -61 8 -51 -9 11 -17 76 -11 112 11 l34 21 -27 29 c-28 29 -44
37 -44 20z"/>
<path d="M7062 8175 c-7 -8 -9 -15 -4 -15 5 0 15 7 22 15 16 19 -1 19 -18 0z"/>
<path d="M6272 8143 c-10 -4 -9 -8 5 -19 25 -19 33 -17 33 6 0 20 -12 24 -38
13z"/>
<path d="M6554 8124 c3 -9 6 -18 6 -20 0 -7 36 -5 43 3 4 3 -5 12 -19 20 -34
17 -37 16 -30 -3z"/>
<path d="M6397 8083 c3 -7 16 -13 29 -13 26 0 30 -10 12 -28 -9 -9 -4 -12 24
-12 69 0 57 26 -24 52 -37 12 -45 12 -41 1z m93 -33 c0 -5 -5 -10 -11 -10 -5
0 -7 5 -4 10 3 6 8 10 11 10 2 0 4 -4 4 -10z"/>
<path d="M6915 8080 c3 -5 8 -10 11 -10 2 0 4 5 4 10 0 6 -5 10 -11 10 -5 0
-7 -4 -4 -10z"/>
<path d="M6870 8065 c7 -9 15 -13 17 -11 7 7 -7 26 -19 26 -6 0 -6 -6 2 -15z"/>
<path d="M6703 8043 c-13 -8 -23 -20 -23 -25 0 -7 4 -7 13 -1 6 5 32 11 57 12
50 2 61 8 40 21 -8 5 -21 5 -31 -1 -23 -12 -32 -12 -24 1 9 15 -7 11 -32 -7z"/>
<path d="M6810 8050 c0 -5 5 -10 11 -10 5 0 7 5 4 10 -3 6 -8 10 -11 10 -2 0
-4 -4 -4 -10z"/>
<path d="M6532 8038 c-7 -7 -12 -16 -12 -21 0 -14 134 -1 138 13 4 10 -7 11
-44 6 -35 -5 -45 -4 -34 3 12 9 10 11 -10 11 -15 0 -31 -5 -38 -12z"/>
<path d="M5365 7920 c-3 -6 1 -7 9 -4 18 7 21 14 7 14 -6 0 -13 -4 -16 -10z"/>
<path d="M5304 7894 c-18 -14 -18 -14 6 -3 31 14 36 19 24 19 -6 0 -19 -7 -30
-16z"/>
<path d="M5251 7879 c-13 -5 -22 -11 -20 -14 8 -7 49 7 49 16 0 5 -1 9 -2 8
-2 0 -14 -5 -27 -10z"/>
<path d="M4615 7605 c-16 -8 -23 -14 -14 -15 8 0 24 7 35 15 23 18 18 18 -21
0z"/>
<path d="M4446 7513 c-6 -14 -5 -15 5 -6 7 7 10 15 7 18 -3 3 -9 -2 -12 -12z"/>
<path d="M4204 7215 c-10 -8 -14 -14 -9 -15 15 0 40 18 34 24 -3 3 -14 -1 -25
-9z"/>
<path d="M5730 8016 c0 -2 8 -10 18 -17 15 -13 16 -12 3 4 -13 16 -21 21 -21
13z"/>
<path d="M5930 7909 c16 -16 121 -62 127 -56 2 2 -25 17 -59 33 -86 39 -85 39
-68 23z"/>
<path d="M6070 7835 c0 -8 102 -56 108 -51 3 3 3 8 1 10 -7 8 -109 46 -109 41z"/>
<path d="M6260 7730 c22 -16 88 -50 97 -50 14 0 -61 47 -87 54 -20 6 -22 5
-10 -4z"/>
<path d="M2665 7800 c3 -5 8 -10 11 -10 2 0 4 5 4 10 0 6 -5 10 -11 10 -5 0
-7 -4 -4 -10z"/>
<path d="M2971 7681 c-10 -7 -7 -9 12 -8 15 1 27 5 27 10 0 10 -22 9 -39 -2z"/>
<path d="M2770 7561 c0 -5 9 -7 20 -4 11 3 20 7 20 9 0 2 -9 4 -20 4 -11 0
-20 -4 -20 -9z"/>
<path d="M4580 7226 c0 -3 9 -10 20 -16 11 -6 20 -8 20 -6 0 3 -9 10 -20 16
-11 6 -20 8 -20 6z"/>
<path d="M4430 6665 c-51 -16 -103 -62 -130 -115 -52 -101 -52 -339 -1 -455
40 -90 131 -147 236 -147 122 0 214 66 251 180 26 79 26 304 1 377 -49 143
-197 209 -357 160z"/>
<path d="M5590 6657 c-66 -27 -112 -83 -136 -164 -21 -74 -15 -305 10 -374 53
-144 216 -212 357 -147 122 56 162 142 163 348 0 157 -19 225 -79 286 -75 74
-205 96 -315 51z"/>
<path d="M3243 6653 c-22 -4 -23 -8 -23 -113 0 -60 3 -115 6 -124 10 -25 254
-23 311 3 100 46 98 185 -3 227 -32 13 -234 18 -291 7z"/>
<path d="M3220 6091 l0 -120 46 -7 c25 -3 103 -5 173 -2 99 4 134 9 158 23 57
33 70 107 30 166 -36 54 -54 59 -239 59 l-168 0 0 -119z"/>
<path d="M2518 6483 c7 -3 16 -2 19 1 4 3 -2 6 -13 5 -11 0 -14 -3 -6 -6z"/>
<path d="M2000 6240 c-9 -6 -10 -10 -3 -10 6 0 15 5 18 10 8 12 4 12 -15 0z"/>
<path d="M8503 6263 c-3 -10 -8 -21 -10 -25 -2 -5 -1 -8 4 -8 4 0 13 11 20 25
6 14 7 25 2 25 -5 0 -12 -8 -16 -17z"/>
<path d="M8475 6200 c-9 -15 4 -30 26 -30 17 0 18 3 9 20 -12 22 -25 26 -35
10z"/>
<path d="M8563 6186 c0 -8 8 -11 19 -8 10 2 15 8 12 13 -8 14 -31 11 -31 -5z"/>
<path d="M2615 5881 c-3 -6 3 -14 13 -20 14 -7 19 -6 19 4 0 7 -7 11 -15 7
-10 -3 -13 -1 -8 6 4 7 5 12 2 12 -3 0 -7 -4 -11 -9z"/>
<path d="M1787 5353 c-16 -4 -17 -18 -15 -156 l3 -152 155 1 c176 0 216 12
257 73 32 47 32 125 0 172 -38 56 -64 64 -232 66 -82 1 -158 -1 -168 -4z"/>
<path d="M2745 4450 c-3 -5 -1 -10 4 -10 6 0 11 5 11 10 0 6 -2 10 -4 10 -3 0
-8 -4 -11 -10z"/>
<path d="M8176 5358 c3 -4 11 -5 19 -1 21 7 19 12 -4 10 -11 0 -18 -5 -15 -9z"/>
<path d="M3061 4327 c2 -1 12 -9 22 -16 15 -12 17 -12 11 3 -3 9 -13 16 -22
16 -8 0 -13 -1 -11 -3z"/>
<path d="M3010 4316 c0 -2 7 -9 15 -16 9 -7 15 -8 15 -2 0 5 -7 12 -15 16 -8
3 -15 4 -15 2z"/>
<path d="M2950 4290 c0 -20 15 -25 44 -14 13 5 14 9 5 20 -18 21 -49 17 -49
-6z"/>
<path d="M3300 4271 c0 -6 5 -13 10 -16 6 -3 10 1 10 9 0 9 -4 16 -10 16 -5 0
-10 -4 -10 -9z"/>
<path d="M3130 4210 c0 -5 5 -10 11 -10 5 0 7 5 4 10 -3 6 -8 10 -11 10 -2 0
-4 -4 -4 -10z"/>
<path d="M3085 4170 c3 -5 8 -10 11 -10 2 0 4 5 4 10 0 6 -5 10 -11 10 -5 0
-7 -4 -4 -10z"/>
<path d="M2840 4244 c0 -5 7 -19 15 -30 8 -10 15 -14 15 -8 0 5 -7 19 -15 30
-8 10 -15 14 -15 8z"/>
<path d="M2735 4091 c-6 -11 29 -34 38 -25 3 3 3 12 0 20 -6 16 -29 19 -38 5z"/>
<path d="M4365 4150 c-11 -4 -23 -6 -27 -3 -5 2 -8 -1 -8 -7 0 -6 -4 -9 -10
-5 -14 9 -60 -5 -60 -19 0 -6 -14 -11 -31 -12 -17 -1 -38 -9 -47 -18 -16 -16
-16 -17 3 -10 17 6 18 5 7 -7 -10 -11 -16 -11 -32 -1 -24 15 -33 15 -25 2 3
-5 -1 -10 -9 -10 -8 0 -19 -7 -24 -16 -6 -12 -17 -15 -32 -11 -12 3 -45 -3
-74 -14 -109 -42 -148 -61 -153 -75 -5 -16 62 -9 90 9 15 10 29 12 39 6 11 -6
18 -4 21 6 4 10 1 12 -11 9 -14 -5 -15 -4 -2 4 10 8 19 7 29 -1 11 -9 13 -9 8
0 -5 8 2 12 20 12 52 2 62 4 67 17 3 7 18 15 35 19 17 4 31 10 31 14 0 10 39
11 45 0 10 -15 25 -10 19 6 -4 9 0 15 10 15 8 0 34 10 56 21 22 12 50 19 61
16 15 -4 19 -2 15 8 -3 8 0 15 6 17 6 2 9 11 7 20 -3 11 -10 13 -24 8z m-434
-183 c-10 -9 -11 -8 -5 6 3 10 9 15 12 12 3 -3 0 -11 -7 -18z"/>
<path d="M4327 4049 c7 -7 15 -10 18 -7 3 3 -2 9 -12 12 -14 6 -15 5 -6 -5z"/>
<path d="M4296 4026 c3 -9 11 -16 16 -16 13 0 5 23 -10 28 -7 2 -10 -2 -6 -12z"/>
<path d="M4170 4013 c1 -12 59 -67 65 -61 9 9 -7 38 -21 38 -8 0 -14 7 -14 15
0 8 -7 15 -15 15 -8 0 -15 -3 -15 -7z"/>
<path d="M4240 4011 c0 -15 42 -41 53 -34 6 4 0 14 -12 25 -25 20 -41 23 -41
9z"/>
<path d="M4520 4010 c0 -5 5 -10 10 -10 6 0 10 5 10 10 0 6 -4 10 -10 10 -5 0
-10 -4 -10 -10z"/>
<path d="M4120 3976 c0 -16 42 -46 66 -46 11 0 7 9 -16 30 -35 33 -50 38 -50
16z"/>
<path d="M4385 3980 c3 -5 11 -10 16 -10 6 0 7 5 4 10 -3 6 -11 10 -16 10 -6
0 -7 -4 -4 -10z"/>
<path d="M4555 3980 c3 -5 8 -10 11 -10 2 0 4 5 4 10 0 6 -5 10 -11 10 -5 0
-7 -4 -4 -10z"/>
<path d="M4050 3971 c0 -13 80 -75 87 -68 3 3 -6 16 -20 29 -53 48 -67 57 -67
39z"/>
<path d="M4010 3946 c0 -2 19 -19 43 -37 l42 -33 -35 37 c-31 32 -50 45 -50
33z"/>
<path d="M4246 3925 c-3 -8 -1 -15 4 -15 6 0 10 7 10 15 0 8 -2 15 -4 15 -2 0
-6 -7 -10 -15z"/>
<path d="M4285 3930 c-8 -13 5 -13 25 0 13 8 13 10 -2 10 -9 0 -20 -4 -23 -10z"/>
<path d="M3930 3920 c0 -5 7 -10 16 -10 8 0 12 5 9 10 -3 6 -10 10 -16 10 -5
0 -9 -4 -9 -10z"/>
<path d="M4208 3903 c7 -3 16 -2 19 1 4 3 -2 6 -13 5 -11 0 -14 -3 -6 -6z"/>
<path d="M4526 3885 c3 -7 12 -12 19 -11 17 3 32 16 19 17 -5 0 -17 2 -26 4
-10 2 -15 -2 -12 -10z"/>
<path d="M4136 3871 c-4 -5 3 -7 14 -4 23 6 26 13 6 13 -8 0 -17 -4 -20 -9z"/>
<path d="M4265 3871 c-3 -5 -2 -12 3 -15 5 -3 9 1 9 9 0 17 -3 19 -12 6z"/>
<path d="M4103 3863 c-7 -2 -13 -9 -13 -14 0 -6 4 -8 9 -5 5 4 12 0 14 -6 3
-7 6 -3 6 10 1 12 0 22 -1 21 -2 0 -9 -3 -15 -6z"/>
<path d="M4550 3850 c-9 -6 -10 -10 -3 -10 6 0 15 5 18 10 8 12 4 12 -15 0z"/>
<path d="M4181 3831 c-9 -6 -6 -8 13 -8 14 0 23 3 20 8 -7 11 -15 11 -33 0z"/>
<path d="M4347 3809 c5 -20 18 -25 27 -11 2 4 -4 13 -14 19 -15 10 -17 9 -13
-8z"/>
<path d="M4485 3820 c11 -5 29 -8 40 -8 16 0 15 2 -5 8 -34 11 -60 11 -35 0z"/>
<path d="M4123 3813 c4 -3 1 -13 -5 -22 -10 -13 -10 -14 2 -4 11 10 18 9 34
-5 15 -12 14 -9 -3 11 -14 15 -27 27 -29 27 -3 0 -2 -3 1 -7z"/>
<path d="M4244 3802 c3 -6 -2 -13 -11 -15 -10 -2 -6 -3 8 -1 23 3 26 0 22 -19
-4 -18 -3 -19 6 -7 15 21 14 28 -10 41 -13 7 -19 7 -15 1z"/>
<path d="M4387 3793 c-10 -10 -23 -18 -30 -19 -6 0 -20 -2 -29 -2 -10 -1 -18
-6 -18 -12 0 -6 10 -6 28 1 15 6 27 9 27 7 0 -2 14 7 30 19 17 12 25 23 20 23
-6 0 -19 -8 -28 -17z"/>
<path d="M4448 3803 c6 -2 18 -2 25 0 6 3 1 5 -13 5 -14 0 -19 -2 -12 -5z"/>
<path d="M4410 3780 c-12 -8 -11 -10 8 -10 12 0 22 5 22 10 0 13 -11 13 -30 0z"/>
<path d="M4610 3750 c0 -5 7 -7 15 -4 8 4 15 8 15 10 0 2 -7 4 -15 4 -8 0 -15
-4 -15 -10z"/>
<path d="M4565 3730 c-3 -5 -1 -10 4 -10 6 0 11 5 11 10 0 6 -2 10 -4 10 -3 0
-8 -4 -11 -10z"/>
<path d="M5985 4180 c-63 -15 -86 -25 -107 -50 -37 -40 -36 -75 2 -110 50 -47
118 -64 229 -57 199 11 305 92 224 170 -66 63 -204 82 -348 47z m115 -46 c-8
-34 -7 -36 30 -38 11 -1 14 -11 12 -41 -2 -22 -6 -42 -8 -44 -9 -9 -33 23 -36
47 -3 24 -7 27 -48 27 -25 0 -56 -3 -70 -6 -65 -18 -78 -19 -84 -3 -11 29 12
54 49 54 19 0 35 -4 35 -10 0 -5 -7 -10 -16 -10 -8 0 -12 -4 -9 -10 9 -15 35
-12 35 4 0 21 20 30 33 17 14 -14 60 -15 52 0 -11 17 4 59 19 53 10 -4 12 -14
6 -40z m58 30 c28 -8 29 -24 1 -24 -11 0 -18 4 -14 9 3 5 -3 12 -12 14 -10 3
-13 5 -8 6 6 0 20 -2 33 -5z m98 -32 c6 -4 13 -15 17 -24 5 -16 0 -18 -41 -18
l-47 -1 34 -29 c38 -32 38 -34 0 -43 -25 -6 -27 -4 -41 53 -13 53 -13 60 1 63
27 8 65 7 77 -1z m54 -66 c0 -3 -4 -8 -10 -11 -5 -3 -10 -1 -10 4 0 6 5 11 10
11 6 0 10 -2 10 -4z m-237 -36 c15 -5 16 -8 4 -24 -13 -18 -16 -18 -73 -2
-102 30 -105 36 -24 34 41 -1 83 -4 93 -8z"/>
<path d="M2240 4015 c46 -18 64 -17 25 0 -16 8 -37 14 -45 14 -8 0 1 -7 20
-14z"/>
<path d="M2850 3830 c-25 -10 -38 -19 -29 -19 8 -1 33 8 55 19 50 25 33 25
-26 0z"/>
<path d="M7605 3905 c-71 -35 -122 -64 -113 -65 24 0 262 106 266 119 7 20
-22 10 -153 -54z"/>
<path d="M7725 3876 c-60 -29 -120 -56 -132 -60 -33 -11 -29 -30 5 -22 33 8
219 98 247 120 41 31 -10 15 -120 -38z"/>
<path d="M7316 3861 c-8 -12 206 -121 238 -121 28 0 33 -9 14 -28 -15 -15 -1
-16 40 -1 39 14 34 24 -15 33 -21 3 -87 33 -147 66 -115 63 -121 65 -130 51z"/>
<path d="M7920 3783 c0 -5 24 -24 53 -43 37 -24 47 -35 35 -38 -10 -2 -26 5
-37 15 -33 30 -76 52 -89 44 -7 -4 7 -16 36 -31 26 -14 49 -26 51 -27 2 -2 2
-6 -2 -9 -3 -4 -31 8 -63 25 -74 42 -82 32 -10 -14 55 -35 89 -39 121 -15 6 4
19 10 30 12 15 3 8 10 -33 31 -29 16 -55 34 -59 42 -5 15 -33 21 -33 8z"/>
<path d="M7810 3720 c-15 -9 -17 -8 37 -25 14 -5 12 -9 -11 -20 -16 -8 -38
-14 -50 -14 -17 1 -17 2 -3 6 20 5 22 14 5 31 -19 19 -28 14 -28 -13 0 -19 -5
-25 -22 -25 -19 0 -20 -2 -8 -10 22 -14 63 -12 105 5 43 19 67 13 94 -21 18
-23 20 -23 59 -10 50 18 122 58 122 69 0 12 -28 8 -62 -11 -90 -49 -93 -49
-157 2 -66 51 -61 49 -81 36z"/>
<path d="M8084 3599 c-127 -66 -148 -79 -122 -79 15 0 107 37 220 89 26 11 52
21 57 21 6 0 11 7 11 15 0 28 -46 15 -166 -46z"/>
<path d="M6578 3722 c-98 -48 -178 -90 -178 -94 0 -20 60 -3 191 56 79 35 162
71 184 80 l40 17 -25 14 c-14 8 -27 14 -30 14 -3 0 -85 -39 -182 -87z"/>
<path d="M6885 3740 c-33 -17 -132 -60 -220 -96 -171 -71 -185 -79 -185 -100
0 -12 5 -11 25 2 14 9 25 14 25 11 0 -3 44 16 98 43 53 26 152 70 219 96 68
27 123 55 123 62 0 18 -18 14 -85 -18z"/>
<path d="M6905 3685 c-27 -13 -43 -24 -35 -24 17 -1 100 35 100 44 0 8 -12 5
-65 -20z"/>
<path d="M6950 3670 c-13 -8 -12 -10 3 -10 9 0 17 5 17 10 0 12 -1 12 -20 0z"/>
<path d="M6860 3638 c-14 -7 -45 -20 -70 -31 -131 -57 -277 -130 -297 -149
-30 -28 -30 -45 0 -24 12 9 112 61 222 116 110 55 193 100 185 99 -8 0 -26 -5
-40 -11z"/>
<path d="M6610 3560 c-9 -6 -10 -10 -3 -10 6 0 15 5 18 10 8 12 4 12 -15 0z"/>
<path d="M5545 3350 c29 -20 91 -50 104 -50 12 1 -85 57 -109 64 -23 7 -23 6
5 -14z"/>
<path d="M5440 3350 c-13 -9 -13 -12 3 -21 11 -6 28 -22 40 -35 28 -33 41 -30
20 4 l-17 27 25 -22 c14 -13 34 -23 44 -23 12 0 2 11 -28 31 -26 17 -47 35
-47 40 0 12 -21 11 -40 -1z m45 -20 c3 -5 2 -10 -4 -10 -5 0 -13 5 -16 10 -3
6 -2 10 4 10 5 0 13 -4 16 -10z"/>
<path d="M5374 3315 c24 -18 39 -20 34 -2 -3 6 -15 13 -29 15 -23 2 -23 2 -5
-13z"/>
<path d="M5291 3296 c9 -9 142 -76 151 -76 22 0 -7 20 -68 49 -58 27 -96 39
-83 27z"/>
<path d="M5296 3250 c18 -18 36 -31 42 -29 6 2 -8 17 -31 33 l-42 29 31 -33z"/>
<path d="M5207 3263 c-12 -12 -7 -20 19 -32 35 -16 39 -9 11 17 -13 12 -27 19
-30 15z"/>
<path d="M5080 3210 c-28 -22 -27 -24 43 -61 53 -28 58 -16 8 15 -56 36 -54
51 4 47 17 -2 17 0 5 8 -21 15 -32 13 -60 -9z"/>
<path d="M5230 3190 c20 -13 67 -13 75 0 4 6 -12 10 -42 10 -35 0 -44 -3 -33
-10z"/>
<path d="M5170 3170 c8 -6 24 -15 35 -21 16 -8 15 -6 -4 10 -13 12 -28 21 -35
21 -6 0 -4 -5 4 -10z"/>
<path d="M4941 3161 c-10 -6 -4 -11 20 -16 19 -4 55 -18 81 -31 52 -26 58 -28
58 -15 0 8 -120 71 -136 71 -5 0 -15 -4 -23 -9z"/>
<path d="M5190 3119 c0 -5 5 -7 10 -4 6 3 10 8 10 11 0 2 -4 4 -10 4 -5 0 -10
-5 -10 -11z"/>
<path d="M3769 3677 c14 -18 51 -42 51 -33 0 3 -15 15 -32 27 -24 17 -29 18
-19 6z"/>
<path d="M4034 3526 c11 -9 24 -16 30 -16 12 0 7 5 -24 19 -24 11 -24 11 -6
-3z"/>
<path d="M3201 3586 c-24 -13 -39 -26 -34 -29 6 -4 16 0 23 8 7 8 18 15 24 15
7 0 21 7 32 15 29 22 5 17 -45 -9z"/>
<path d="M3279 3543 c-13 -17 -13 -17 6 -3 11 8 22 16 24 17 2 2 0 3 -6 3 -6
0 -17 -8 -24 -17z"/>
<path d="M2228 3533 c7 -3 16 -2 19 1 4 3 -2 6 -13 5 -11 0 -14 -3 -6 -6z"/>
<path d="M2478 3533 c7 -3 16 -2 19 1 4 3 -2 6 -13 5 -11 0 -14 -3 -6 -6z"/>
<path d="M2866 3461 c-18 -19 -17 -20 10 -12 15 4 29 12 32 19 6 19 -23 14
-42 -7z"/>
<path d="M3336 3472 c-9 -15 9 -31 24 -22 13 8 12 10 -3 10 -10 0 -15 5 -12
10 3 6 4 10 1 10 -3 0 -7 -4 -10 -8z"/>
<path d="M2520 3333 c-42 -23 -60 -39 -60 -56 0 -5 4 -6 9 -3 5 3 11 0 14 -7
5 -15 72 -50 136 -72 69 -24 62 -18 -38 33 -97 48 -115 65 -84 75 10 4 25 11
33 16 8 5 26 13 39 18 18 7 21 11 10 15 -8 3 -34 -6 -59 -19z"/>
<path d="M3860 3330 c-9 -6 -10 -10 -3 -10 6 0 15 5 18 10 8 12 4 12 -15 0z"/>
<path d="M2539 3301 c-13 -11 -19 -20 -13 -21 15 0 50 27 43 34 -3 4 -17 -2
-30 -13z"/>
<path d="M3783 3313 c9 -2 23 -2 30 0 6 3 -1 5 -18 5 -16 0 -22 -2 -12 -5z"/>
<path d="M3676 3292 c-3 -5 8 -6 25 -4 16 2 29 6 29 8 0 8 -49 4 -54 -4z"/>
<path d="M3788 3293 c7 -3 16 -2 19 1 4 3 -2 6 -13 5 -11 0 -14 -3 -6 -6z"/>
<path d="M2606 3244 c-5 -14 -4 -15 9 -4 17 14 19 20 6 20 -5 0 -12 -7 -15
-16z"/>
<path d="M2688 3168 c5 -5 16 -8 23 -6 8 3 3 7 -10 11 -17 4 -21 3 -13 -5z"/>
<path d="M5758 3653 c7 -3 16 -2 19 1 4 3 -2 6 -13 5 -11 0 -14 -3 -6 -6z"/>
<path d="M5747 3625 c3 -8 9 -12 14 -9 12 7 11 11 -5 17 -10 4 -13 1 -9 -8z"/>
<path d="M7105 3350 c-18 -20 -18 -22 -2 -53 21 -37 113 -85 131 -67 7 7 3 10
-11 10 -12 0 -28 7 -37 15 -8 8 -23 15 -34 15 -28 0 -50 46 -33 72 17 28 8 33
-14 8z"/>
<path d="M7141 3366 c2 -2 20 -6 39 -10 25 -4 31 -3 20 4 -14 9 -69 15 -59 6z"/>
<path d="M7260 3352 c0 -11 129 -76 137 -69 3 4 -5 11 -18 17 -13 6 -42 22
-64 35 -42 26 -55 30 -55 17z"/>
<path d="M6985 3310 c-4 -6 6 -7 27 -3 44 8 48 13 10 13 -17 0 -34 -4 -37 -10z"/>
<path d="M6940 3282 c0 -30 21 -42 70 -41 l45 1 -42 10 c-33 7 -43 14 -43 29
0 10 -7 19 -15 19 -8 0 -15 -8 -15 -18z"/>
<path d="M7250 3254 c0 -8 4 -14 8 -14 5 0 17 6 27 14 18 13 17 14 -8 14 -16
0 -27 -6 -27 -14z"/>
<path d="M7410 3255 c0 -17 2 -18 24 -9 23 9 20 24 -4 24 -11 0 -20 -7 -20
-15z"/>
<path d="M7065 3220 c-4 -6 -23 -17 -43 -26 -33 -14 -35 -16 -18 -26 13 -8 20
-7 26 2 9 15 43 16 118 5 40 -6 52 -12 52 -25 0 -21 -41 -34 -80 -25 -16 3
-31 2 -34 -4 -4 -6 8 -13 27 -16 38 -7 127 29 135 54 3 10 0 12 -11 8 -16 -6
-48 6 -119 43 -43 23 -45 23 -53 10z"/>
<path d="M7301 3206 c-20 -11 -21 -14 -7 -19 17 -7 56 11 56 25 0 12 -22 9
-49 -6z"/>
<path d="M4420 3011 c14 -11 30 -21 35 -21 11 0 -7 14 -40 31 -13 7 -12 3 5
-10z"/>
<path d="M3919 3015 c18 -8 36 -15 40 -15 13 1 -45 29 -59 29 -8 0 0 -6 19
-14z"/>
<path d="M3990 2987 c0 -3 20 -17 45 -32 63 -37 77 -61 64 -110 -6 -21 -17
-48 -25 -60 -14 -22 -14 -22 90 -28 57 -4 111 -9 120 -13 12 -5 16 0 16 22 0
16 -4 34 -8 40 -12 17 -74 61 -133 92 -31 17 -81 44 -112 62 -32 18 -57 30
-57 27z"/>
<path d="M3765 2955 c-86 -20 -156 -47 -169 -67 -8 -14 -5 -23 14 -43 32 -34
189 -125 215 -125 11 0 61 13 110 29 89 27 90 28 104 70 19 60 3 93 -59 120
-63 27 -141 33 -215 16z m82 -40 c65 -27 70 -37 28 -55 -36 -15 -39 -15 -100
15 -35 16 -64 33 -64 37 -2 19 92 21 136 3z m-138 -28 c6 -8 7 -18 3 -22 -4
-5 -2 -5 4 -2 7 4 17 0 24 -8 7 -8 27 -17 46 -21 51 -9 50 -22 -2 -26 -46 -3
-82 7 -119 35 -19 15 -19 16 -1 36 22 25 30 26 45 8z m234 -38 c12 -7 26 -18
30 -26 5 -7 14 -10 20 -7 7 4 5 0 -3 -8 -20 -20 -116 -50 -161 -51 -19 0 -46
7 -60 14 -22 13 -18 14 61 19 81 5 83 6 52 17 -36 13 -35 28 2 43 29 12 34 12
59 -1z"/>
<path d="M3265 2780 c-27 -5 -71 -19 -98 -31 -40 -19 -49 -29 -58 -62 -8 -31
-7 -43 5 -62 17 -27 178 -111 230 -120 59 -11 234 53 256 94 31 59 1 110 -95
159 -56 28 -154 37 -240 22z m100 -40 c-14 -6 -15 -9 -5 -9 8 -1 48 -16 88
-35 l72 -33 -62 -6 c-35 -3 -79 -9 -98 -12 -29 -4 -31 -3 -10 4 14 5 40 15 59
24 l34 14 -48 7 c-26 4 -70 5 -99 1 -37 -4 -47 -3 -36 4 8 6 25 11 38 11 20 0
27 10 23 33 0 4 14 7 32 6 27 0 29 -2 12 -9z m-135 -60 c-13 -8 -12 -10 3 -10
9 0 17 -6 17 -14 0 -19 -67 -26 -82 -9 -17 20 10 38 62 42 13 1 13 0 0 -9z
m75 -50 c-28 -12 -37 -12 -30 0 3 6 16 10 28 9 21 0 21 -1 2 -9z m265 0 c-8
-5 -46 -14 -85 -20 -38 -6 -98 -18 -132 -27 -54 -14 -125 -12 -110 3 3 3 51
12 107 20 57 9 112 20 124 24 30 12 115 12 96 0z"/>
<path d="M2768 2703 c7 -3 16 -2 19 1 4 3 -2 6 -13 5 -11 0 -14 -3 -6 -6z"/>
<path d="M3080 2516 c0 -3 9 -10 20 -16 11 -6 20 -8 20 -6 0 3 -9 10 -20 16
-11 6 -20 8 -20 6z"/>
<path d="M6305 2789 c-27 -4 -82 -20 -122 -35 -63 -22 -73 -29 -73 -50 0 -37
46 -71 121 -89 37 -9 77 -15 90 -13 20 3 18 6 -24 38 -66 50 -64 77 2 44 38
-19 189 -30 210 -15 18 12 19 65 2 85 -24 29 -130 47 -206 35z m130 -49 c17 0
37 -5 45 -10 13 -9 13 -11 0 -20 -16 -10 -109 -3 -124 10 -14 14 5 32 28 26
11 -3 35 -6 51 -6z"/>
<path d="M6582 2665 c-23 -13 -88 -45 -144 -70 -57 -25 -107 -50 -112 -55 -4
-4 1 -13 13 -19 17 -10 37 -6 109 23 48 19 106 41 130 49 74 24 104 64 64 86
-14 7 -29 4 -60 -14z"/>
<path d="M6970 2610 c0 -5 5 -10 11 -10 5 0 7 5 4 10 -3 6 -8 10 -11 10 -2 0
-4 -4 -4 -10z"/>
<path d="M6719 2599 c-31 -7 -127 -43 -219 -82 -14 -5 -31 -9 -37 -8 -7 1 -13
-3 -13 -9 0 -6 30 -25 68 -43 88 -41 160 -42 252 -4 36 15 76 36 90 46 21 17
23 22 12 45 -20 44 -91 69 -153 55z m66 -49 c11 -18 -21 -55 -63 -74 -37 -17
-44 -17 -98 -3 l-59 15 75 36 c75 35 133 46 145 26z"/>
<path d="M7010 2590 c8 -5 20 -10 25 -10 6 0 3 5 -5 10 -8 5 -19 10 -25 10 -5
0 -3 -5 5 -10z"/>
<path d="M7081 2556 c2 -2 15 -9 29 -16 23 -12 24 -12 11 3 -7 10 -20 17 -29
17 -8 0 -13 -2 -11 -4z"/>
<path d="M6740 2339 c41 -17 156 -23 165 -10 5 9 -7 12 -49 10 -31 -1 -59 0
-63 4 -3 4 -22 7 -42 6 -34 0 -35 -1 -11 -10z"/>
<path d="M4925 2409 c-4 -5 3 -9 14 -9 26 0 35 15 11 17 -11 1 -22 -2 -25 -8z"/>
<path d="M5162 2297 c-39 -38 -40 -47 -7 -47 14 0 44 -8 68 -19 23 -10 54 -23
70 -29 15 -7 27 -16 27 -20 0 -5 -12 -8 -27 -5 -26 3 -27 3 -6 -8 17 -9 30 -7
68 12 l47 24 -28 11 c-16 7 -34 9 -41 7 -18 -7 -103 17 -103 29 0 15 30 21 45
8 9 -8 19 -8 31 -2 15 8 12 12 -20 20 -30 9 -43 8 -60 -3 -19 -13 -25 -13 -40
-2 -17 13 -17 15 9 35 15 12 21 22 14 21 -8 0 -29 -14 -47 -32z m198 -97 c0
-5 -4 -10 -9 -10 -6 0 -13 5 -16 10 -3 6 1 10 9 10 9 0 16 -4 16 -10z"/>
<path d="M5077 2300 c-14 -11 -31 -20 -39 -20 -7 0 -19 -4 -26 -9 -9 -5 15
-24 77 -58 50 -28 91 -47 91 -43 0 5 2 14 5 22 4 9 -4 14 -22 15 -15 0 -29 6
-31 12 -2 6 -12 11 -21 11 -10 0 -26 9 -35 19 -17 19 -17 20 23 31 24 6 41 17
41 25 0 21 -33 18 -63 -5z"/>
<path d="M4925 2190 c-3 -5 -1 -10 4 -10 6 0 11 5 11 10 0 6 -2 10 -4 10 -3 0
-8 -4 -11 -10z"/>
<path d="M5214 2177 l-27 -23 38 -23 c53 -31 106 -52 116 -45 20 12 7 24 -31
30 -22 4 -45 13 -51 20 -6 8 -18 14 -25 14 -18 0 -18 9 3 32 23 25 9 22 -23
-5z"/>
<path d="M5039 2173 c-13 -16 -12 -17 4 -4 9 7 17 15 17 17 0 8 -8 3 -21 -13z"/>
<path d="M5410 2168 c-19 -5 -39 -13 -43 -18 -5 -4 18 -24 51 -44 50 -30 64
-35 85 -27 43 17 42 31 -2 29 -27 -1 -48 5 -61 17 -24 22 -12 35 33 35 16 0
26 4 22 10 -8 12 -38 12 -85 -2z"/>
<path d="M5116 2121 c-4 -5 -2 -12 3 -15 5 -4 12 -2 15 3 4 5 2 12 -3 15 -5 4
-12 2 -15 -3z"/>
<path d="M4748 2102 c-16 -2 -28 -8 -28 -13 0 -12 67 -12 74 0 8 12 -12 17
-46 13z"/>
<path d="M5369 2050 c21 -18 61 -28 61 -15 0 7 -57 35 -72 35 -7 -1 -3 -9 11
-20z"/>
<path d="M5605 2030 c-11 -11 -49 -35 -85 -55 -72 -38 -67 -48 8 -13 53 25 79
45 93 71 13 22 8 22 -16 -3z"/>
<path d="M4656 2012 c-13 -21 18 -62 62 -83 30 -15 65 -23 106 -23 54 -1 61 1
64 19 4 38 -212 119 -232 87z"/>
<path d="M4480 1939 c0 -5 5 -7 10 -4 6 3 10 8 10 11 0 2 -4 4 -10 4 -5 0 -10
-5 -10 -11z"/>
<path d="M4196 8675 c-25 -19 -9 -19 24 0 14 8 19 14 10 14 -8 0 -24 -6 -34
-14z"/>
<path d="M4145 8650 c-3 -5 -1 -10 4 -10 6 0 11 5 11 10 0 6 -2 10 -4 10 -3 0
-8 -4 -11 -10z"/>
<path d="M3940 8575 c-14 -8 -19 -14 -10 -14 8 0 24 6 34 14 25 19 9 19 -24 0z"/>
<path d="M3573 8563 c-22 -8 -14 -20 11 -16 13 3 38 -2 55 -11 41 -22 40 -13
-3 13 -34 21 -42 23 -63 14z"/>
<path d="M3480 8523 c-8 -2 -30 -11 -48 -19 -18 -8 -38 -12 -45 -8 -9 5 -9 4
-1 -5 9 -9 21 -8 55 5 52 20 84 43 39 27z"/>
<path d="M3335 8470 c-3 -6 1 -7 9 -4 18 7 21 14 7 14 -6 0 -13 -4 -16 -10z"/>
<path d="M3270 8445 c-33 -19 -10 -19 26 0 16 8 22 15 14 15 -8 -1 -26 -7 -40
-15z"/>
<path d="M3167 8405 c-32 -13 -63 -22 -70 -19 -7 2 -30 -7 -52 -21 -22 -13
-33 -25 -25 -25 14 0 209 77 219 86 10 10 -18 1 -72 -21z"/>
<path d="M3432 8405 c-68 -19 -107 -39 -161 -83 -39 -32 -43 -38 -37 -70 7
-44 26 -65 95 -104 31 -18 78 -49 105 -70 43 -34 106 -68 125 -68 15 0 41 63
35 86 -6 22 -3 24 32 24 50 0 191 47 215 71 24 24 25 86 3 117 -57 82 -279
134 -412 97z m288 -68 c80 -27 97 -56 60 -107 -22 -31 -39 -41 -90 -54 -14 -3
-7 3 15 14 35 17 36 19 10 13 -16 -3 -40 -10 -53 -14 -36 -14 -161 -10 -222 6
-90 23 -144 106 -89 136 65 34 275 38 369 6z m-285 -157 l20 -9 -20 0 c-11 0
-29 4 -40 9 l-20 9 20 0 c11 0 29 -4 40 -9z m133 -27 c-15 -2 -42 -2 -60 0
-18 2 -6 4 27 4 33 0 48 -2 33 -4z"/>
<path d="M2980 8350 c-9 -6 -10 -10 -3 -10 6 0 15 5 18 10 8 12 4 12 -15 0z"/>
<path d="M2957 8329 c7 -7 15 -10 18 -7 3 3 -2 9 -12 12 -14 6 -15 5 -6 -5z"/>
<path d="M2935 8197 c22 -15 55 -28 55 -22 0 4 -60 35 -69 35 -3 0 3 -6 14
-13z"/>
<path d="M4090 8155 l-24 -26 30 -30 c39 -39 110 -57 189 -49 33 4 54 8 46 9
-8 0 -11 4 -8 8 15 14 -154 113 -194 113 -8 0 -26 -11 -39 -25z"/>
<path d="M3856 8123 c-6 -14 -5 -15 5 -6 7 7 10 15 7 18 -3 3 -9 -2 -12 -12z"/>
<path d="M3871 8004 c0 -11 3 -14 6 -6 3 7 2 16 -1 19 -3 4 -6 -2 -5 -13z"/>
<path d="M3636 7961 c-3 -5 13 -21 37 -36 23 -16 53 -36 67 -45 47 -32 111
-59 126 -53 23 9 16 20 -23 40 -21 11 -73 38 -116 61 -85 46 -84 46 -91 33z"/>
<path d="M3364 7878 c-4 -6 -3 -8 4 -4 6 3 17 -1 26 -10 9 -8 21 -12 27 -9 6
5 4 12 -8 21 -22 17 -40 18 -49 2z"/>
<path d="M3435 7851 c-3 -5 -2 -12 3 -15 5 -3 9 1 9 9 0 17 -3 19 -12 6z"/>
<path d="M7490 7826 c0 -2 7 -7 16 -10 8 -3 12 -2 9 4 -6 10 -25 14 -25 6z"/>
<path d="M3520 7796 c0 -2 7 -7 16 -10 8 -3 12 -2 9 4 -6 10 -25 14 -25 6z"/>
<path d="M7510 7656 c0 -2 7 -6 15 -10 8 -3 15 -1 15 4 0 6 -7 10 -15 10 -8 0
-15 -2 -15 -4z"/>
<path d="M7347 7573 c-4 -3 -7 -11 -7 -17 0 -6 5 -5 12 2 6 6 9 14 7 17 -3 3
-9 2 -12 -2z"/>
<path d="M7143 7527 c-52 -42 -88 -61 -127 -67 -26 -3 -40 -11 -42 -22 -2 -14
2 -15 22 -6 18 8 31 8 49 0 16 -8 24 -8 22 -1 -1 6 14 22 33 37 l35 26 -28
-31 c-31 -33 -32 -40 -14 -62 9 -12 9 -13 -1 -7 -8 5 -26 -7 -51 -33 -21 -23
-34 -41 -29 -41 5 0 19 10 31 23 12 12 34 30 50 40 16 11 27 26 27 40 0 13 11
34 25 47 13 12 22 26 20 30 -6 10 25 17 49 12 15 -3 16 -6 5 -14 -11 -8 -10
-9 4 -4 10 3 28 1 39 -5 15 -8 19 -8 13 0 -3 6 -28 22 -55 36 l-49 25 -28 -23z"/>
<path d="M7080 7510 c-8 -5 -10 -10 -5 -10 6 0 17 5 25 10 8 5 11 10 5 10 -5
0 -17 -5 -25 -10z"/>
<path d="M7040 7501 c0 -5 -9 -13 -21 -16 -11 -4 -18 -9 -16 -12 3 -2 18 2 33
10 17 9 23 17 15 21 -6 4 -11 3 -11 -3z"/>
<path d="M7250 7419 c-35 -31 -86 -55 -105 -51 -5 1 -1 -5 9 -13 21 -16 46
-20 46 -7 0 13 61 55 68 47 4 -4 -9 -19 -28 -35 -19 -16 -32 -31 -28 -35 9 -9
50 4 43 14 -2 5 7 19 21 32 22 21 23 25 9 35 -14 11 -14 13 0 28 29 28 1 16
-35 -15z"/>
<path d="M7550 7430 c0 -13 18 -22 24 -11 3 5 -1 11 -9 15 -8 3 -15 1 -15 -4z"/>
<path d="M6998 7405 c-16 -13 -28 -26 -28 -29 0 -4 44 16 69 32 3 1 0 6 -5 11
-5 6 -20 0 -36 -14z"/>
<path d="M6714 7368 c-8 -13 -8 -13 120 -77 64 -32 113 -61 108 -66 -4 -4 -2
-5 5 -1 6 3 14 2 18 -4 3 -5 14 -10 23 -10 21 0 47 -37 30 -42 -16 -6 -1 -28
18 -28 8 0 12 5 9 10 -3 6 -1 10 6 10 8 0 7 5 -2 17 -13 15 -12 15 8 2 23 -14
44 -6 27 10 -23 22 -365 187 -370 179z"/>
<path d="M7078 7332 c-7 -11 -19 -21 -26 -23 -8 -3 -5 -9 9 -17 13 -9 18 -9
14 -2 -8 12 29 53 39 43 3 -4 6 -1 6 5 0 18 -27 14 -42 -6z"/>
<path d="M7306 7325 c-10 -8 -23 -12 -29 -8 -6 3 -7 1 -3 -5 3 -5 0 -13 -6
-15 -7 -3 1 -6 17 -6 32 0 65 19 65 38 0 15 -21 13 -44 -4z"/>
<path d="M6675 7316 c34 -23 116 -57 128 -53 7 2 -18 18 -56 36 -70 32 -106
41 -72 17z"/>
<path d="M7117 7295 c-15 -14 -24 -25 -19 -25 5 0 19 11 32 25 30 32 23 32
-13 0z"/>
<path d="M7395 7280 c-3 -5 -1 -10 4 -10 6 0 11 5 11 10 0 6 -2 10 -4 10 -3 0
-8 -4 -11 -10z"/>
<path d="M1967 7159 c-39 -21 -97 -99 -97 -131 0 -14 -8 -18 -40 -16 -67 2
-68 -14 -3 -66 32 -25 65 -46 73 -46 20 -1 45 -21 53 -43 3 -9 10 -16 14 -15
15 3 63 -14 63 -23 0 -5 23 -20 50 -34 28 -14 50 -23 50 -20 0 2 -21 16 -47
29 -27 14 -45 25 -40 26 19 1 187 -92 182 -100 -4 -6 1 -7 11 -3 11 4 15 3 11
-4 -5 -7 0 -9 13 -6 21 6 21 6 -1 27 -26 24 -80 59 -124 80 -17 8 -39 24 -49
35 -13 14 -26 19 -39 15 -19 -6 -20 -3 -15 59 6 76 57 183 96 200 23 11 23 11
-20 33 -53 28 -92 29 -141 3z"/>
<path d="M2105 7070 c-18 -34 -18 -40 -4 -40 5 0 8 4 4 9 -3 5 -1 12 5 16 16
10 32 45 21 45 -6 0 -17 -13 -26 -30z"/>
<path d="M2388 7013 c7 -3 16 -2 19 1 4 3 -2 6 -13 5 -11 0 -14 -3 -6 -6z"/>
<path d="M2277 6689 c7 -7 15 -10 18 -7 3 3 -2 9 -12 12 -14 6 -15 5 -6 -5z"/>
<path d="M1870 6682 c0 -5 10 -19 22 -32 18 -20 19 -23 4 -17 -10 4 -22 7 -27
7 -6 0 -8 4 -5 9 3 5 -1 14 -9 21 -11 9 -18 10 -29 1 -8 -6 -18 -11 -22 -10
-15 3 -48 -13 -67 -33 -14 -14 -15 -22 -7 -38 13 -24 25 -27 16 -4 -10 26 2
50 24 51 11 1 18 -2 15 -8 -4 -5 -1 -9 4 -9 6 0 11 -10 12 -22 0 -22 1 -22 8
-3 5 13 3 25 -6 34 -13 12 -11 16 14 26 23 10 29 9 31 -3 2 -8 -2 -18 -8 -22
-7 -4 -13 -22 -14 -38 -1 -22 -7 -32 -21 -36 -25 -5 -57 -2 -73 8 -6 4 -12 3
-12 -1 0 -5 9 -14 21 -21 12 -8 18 -9 14 -3 -3 6 -2 11 4 11 5 0 14 -7 18 -15
7 -12 16 -13 43 -5 19 6 73 10 120 10 96 0 150 22 150 60 0 12 -4 19 -8 16 -4
-2 -14 -1 -22 5 -10 6 -11 9 -2 9 6 0 12 5 12 11 0 5 -5 7 -10 4 -6 -4 -19 -4
-28 0 -15 6 -15 8 3 15 18 8 17 9 -7 9 -16 1 -28 7 -28 14 0 8 -4 7 -10 -3 -7
-10 -13 -11 -17 -5 -9 12 -64 14 -56 3 2 -5 -3 -8 -12 -8 -9 0 -13 5 -10 10 3
6 -1 10 -9 10 -9 0 -16 -4 -16 -8z m87 -40 c-10 -2 -26 -1 -35 3 -14 5 -14 8
-2 15 8 5 22 4 34 -3 19 -10 20 -11 3 -15z"/>
</g>
</svg>
